<svg width="67" height="67" viewBox="0 0 67 67" fill="none" xmlns="http://www.w3.org/2000/svg">
    <path d="M33.3347 0C14.9525 0 0 14.9491 0 33.3249C0 42.0531 3.39707 49.9793 8.9092 55.9268C8.98857 56.0299 9.06793 56.1331 9.17111 56.2164C15.2508 62.6276 23.8228 66.65 33.335 66.65C42.8471 66.65 51.4196 62.6272 57.4989 56.2164C57.6021 56.1331 57.6814 56.0299 57.7608 55.9268C63.2691 49.9798 66.67 42.0533 66.67 33.3249C66.67 14.9481 51.7159 0 33.3347 0ZM33.3347 63.477C25.0009 63.477 17.4445 60.077 11.9839 54.5981C15.3095 45.7114 23.7626 39.7963 33.3347 39.7963C42.9068 39.7963 51.3593 45.7116 54.6855 54.5981C49.2209 60.0809 41.6694 63.477 33.3347 63.477ZM57.0221 51.9283C53.9108 45.0093 47.9899 39.891 40.8739 37.745C45.3384 35.1384 48.3545 30.3102 48.3545 24.7794C48.3545 16.4997 41.616 9.76733 33.338 9.76733C25.0559 9.76733 18.3216 16.5038 18.3216 24.7794C18.3216 30.3098 21.3377 35.1419 25.8022 37.745C18.6867 39.8913 12.7617 45.0091 9.65397 51.9283C5.61403 46.7985 3.18138 40.344 3.18138 33.3259C3.18138 16.699 16.7095 3.17385 33.3423 3.17385C49.9741 3.17385 63.5032 16.698 63.5032 33.3259C63.5032 40.3481 61.0706 46.7993 57.0306 51.9283H57.0221ZM33.3347 36.6227C26.8026 36.6227 21.493 31.3104 21.493 24.7804C21.493 18.2502 26.8068 12.9422 33.3347 12.9422C39.8668 12.9422 45.1764 18.2545 45.1764 24.7804C45.1764 31.3106 39.8625 36.6227 33.3347 36.6227Z" stroke="#BFB692" stroke-width="1.5"/>
</svg>
