<svg width="68" height="85" viewBox="0 0 68 85" fill="none" xmlns="http://www.w3.org/2000/svg">
    <path fill-rule="evenodd" clip-rule="evenodd" d="M8.34672 48.41H15.6592C19.5654 53.9452 24.2256 59.008 28.4482 64.258C29.7607 65.8908 31.6591 66.801 33.7529 66.801C35.8467 66.801 37.7451 65.8908 39.0576 64.2619C43.4599 58.7853 48.0264 53.7539 51.8196 48.4099H59.1555C60.5344 48.4099 61.6867 49.3747 61.9328 50.7302L63.2453 57.988L62.4797 58.5896L62.4641 58.6013L40.6871 75.7303L15.0821 63.3713L4.23408 58.1369L5.57388 50.7346C5.81607 49.3752 6.96782 48.41 8.34672 48.41ZM33.7487 0C20.9637 0 10.6007 10.367 10.6007 23.148C10.6007 30.2691 12.6319 36.175 15.7335 41.574C19.8194 48.6912 25.7685 54.926 31.3785 61.902C31.9762 62.6442 32.7965 63.0387 33.7535 63.0387C34.7106 63.0387 35.5308 62.6442 36.1285 61.902C45.9918 49.632 56.9055 39.656 56.9055 23.148C56.9016 10.367 46.5337 0 33.7487 0ZM33.7487 14.098C39.1667 14.098 43.5651 18.4925 43.5651 23.9144C43.5651 29.3363 39.1706 33.7308 33.7487 33.7308C28.3268 33.7308 23.9323 29.3363 23.9323 23.9144C23.9323 18.4925 28.3268 14.098 33.7487 14.098ZM63.9947 62.168L44.4477 77.543L59.0217 84.5782H64.6701C65.5373 84.5782 66.2795 84.2305 66.8342 83.5665C67.3889 82.9024 67.5998 82.1056 67.4436 81.2579L67.0256 78.9493L63.9947 62.168ZM50.3967 84.578L40.1937 79.6522C40.139 79.6288 40.0844 79.6014 40.0297 79.5741L18.5067 69.1911L15.6708 80.4681L14.6356 84.5775L50.3967 84.578ZM10.7677 84.578L10.8771 84.1444L10.881 84.1249L15.0568 67.5269L3.53681 61.9683L0.0485084 81.2573C-0.103832 82.1088 0.103198 82.9057 0.66179 83.5659C1.21648 84.2299 1.96259 84.5776 2.82589 84.5776L10.7673 84.5737L10.7677 84.578Z" fill="#004D40"/>
</svg>
