<svg width="15" height="15" viewBox="0 0 15 15" fill="none" xmlns="http://www.w3.org/2000/svg">
    <path fill-rule="evenodd" clip-rule="evenodd" d="M7 4.5C7 3.30653 7.47411 2.16193 8.31802 1.31802C9.16193 0.474106 10.3065 0 11.5 0L15 0V3.5C15 4.69347 14.5259 5.83807 13.682 6.68198C12.8381 7.52589 11.6935 8 10.5 8H8V15H7V11H4.5C3.30653 11 2.16193 10.5259 1.31802 9.68198C0.474106 8.83807 0 7.69347 0 6.5L0 3H3.5C4.914 3 6.175 3.652 7 4.671V4.5ZM8.146 6.146L11.146 3.146L11.854 3.854L8.854 6.854L8.146 6.146ZM6.146 9.854L3.146 6.854L3.854 6.146L6.854 9.146L6.146 9.854Z" fill="#00473C"/>
</svg>
