<svg width="10" height="10" viewBox="0 0 10 10" fill="none" xmlns="http://www.w3.org/2000/svg">
    <path d="M8.52002 1.47984H7.56002V1.15984C7.56002 1.07497 7.52631 0.993581 7.46629 0.93357C7.40628 0.873558 7.32489 0.839844 7.24002 0.839844C7.15515 0.839844 7.07376 0.873558 7.01374 0.93357C6.95373 0.993581 6.92002 1.07497 6.92002 1.15984V1.47984H5.32002V1.15984C5.32002 1.07497 5.28631 0.993581 5.22629 0.93357C5.16628 0.873558 5.08489 0.839844 5.00002 0.839844C4.91515 0.839844 4.83376 0.873558 4.77375 0.93357C4.71373 0.993581 4.68002 1.07497 4.68002 1.15984V1.47984H3.08002V1.15984C3.08002 1.07497 3.04631 0.993581 2.98629 0.93357C2.92628 0.873558 2.84489 0.839844 2.76002 0.839844C2.67515 0.839844 2.59376 0.873558 2.53375 0.93357C2.47373 0.993581 2.44002 1.07497 2.44002 1.15984V1.47984H1.48002C1.22541 1.47984 0.981232 1.58099 0.801197 1.76102C0.621162 1.94106 0.52002 2.18524 0.52002 2.43984V8.19984C0.52002 8.45445 0.621162 8.69863 0.801197 8.87867C0.981232 9.0587 1.22541 9.15984 1.48002 9.15984H8.52002C8.77463 9.15984 9.01881 9.0587 9.19884 8.87867C9.37888 8.69863 9.48002 8.45445 9.48002 8.19984V2.43984C9.48002 2.18524 9.37888 1.94106 9.19884 1.76102C9.01881 1.58099 8.77463 1.47984 8.52002 1.47984ZM1.16002 2.43984C1.16002 2.35497 1.19373 2.27358 1.25375 2.21357C1.31376 2.15356 1.39515 2.11984 1.48002 2.11984H2.44002V2.43984C2.44002 2.52471 2.47373 2.60611 2.53375 2.66612C2.59376 2.72613 2.67515 2.75984 2.76002 2.75984C2.84489 2.75984 2.92628 2.72613 2.98629 2.66612C3.04631 2.60611 3.08002 2.52471 3.08002 2.43984V2.11984H4.68002V2.43984C4.68002 2.52471 4.71373 2.60611 4.77375 2.66612C4.83376 2.72613 4.91515 2.75984 5.00002 2.75984C5.08489 2.75984 5.16628 2.72613 5.22629 2.66612C5.28631 2.60611 5.32002 2.52471 5.32002 2.43984V2.11984H6.92002V2.43984C6.92002 2.52471 6.95373 2.60611 7.01374 2.66612C7.07376 2.72613 7.15515 2.75984 7.24002 2.75984C7.32489 2.75984 7.40628 2.72613 7.46629 2.66612C7.52631 2.60611 7.56002 2.52471 7.56002 2.43984V2.11984H8.52002C8.60489 2.11984 8.68628 2.15356 8.74629 2.21357C8.8063 2.27358 8.84002 2.35497 8.84002 2.43984V3.39984H1.16002V2.43984ZM8.84002 8.19984C8.84002 8.28471 8.8063 8.36611 8.74629 8.42612C8.68628 8.48613 8.60489 8.51984 8.52002 8.51984H1.48002C1.39515 8.51984 1.31376 8.48613 1.25375 8.42612C1.19373 8.36611 1.16002 8.28471 1.16002 8.19984V4.03984H8.84002V8.19984Z" fill="black"/>
    <path d="M4.67986 5.31969H5.31986C5.40473 5.31969 5.48613 5.28597 5.54614 5.22596C5.60615 5.16595 5.63986 5.08456 5.63986 4.99969C5.63986 4.91482 5.60615 4.83343 5.54614 4.77341C5.48613 4.7134 5.40473 4.67969 5.31986 4.67969H4.67986C4.59499 4.67969 4.5136 4.7134 4.45359 4.77341C4.39358 4.83343 4.35986 4.91482 4.35986 4.99969C4.35986 5.08456 4.39358 5.16595 4.45359 5.22596C4.5136 5.28597 4.59499 5.31969 4.67986 5.31969Z" fill="black"/>
    <path d="M2.44 5.31969H3.08C3.16486 5.31969 3.24626 5.28597 3.30627 5.22596C3.36628 5.16595 3.4 5.08456 3.4 4.99969C3.4 4.91482 3.36628 4.83343 3.30627 4.77341C3.24626 4.7134 3.16486 4.67969 3.08 4.67969H2.44C2.35513 4.67969 2.27373 4.7134 2.21372 4.77341C2.15371 4.83343 2.12 4.91482 2.12 4.99969C2.12 5.08456 2.15371 5.16595 2.21372 5.22596C2.27373 5.28597 2.35513 5.31969 2.44 5.31969Z" fill="black"/>
    <path d="M2.44 6.59996H3.08C3.16486 6.59996 3.24626 6.56625 3.30627 6.50624C3.36628 6.44622 3.4 6.36483 3.4 6.27996C3.4 6.19509 3.36628 6.1137 3.30627 6.05369C3.24626 5.99367 3.16486 5.95996 3.08 5.95996H2.44C2.35513 5.95996 2.27373 5.99367 2.21372 6.05369C2.15371 6.1137 2.12 6.19509 2.12 6.27996C2.12 6.36483 2.15371 6.44622 2.21372 6.50624C2.27373 6.56625 2.35513 6.59996 2.44 6.59996Z" fill="black"/>
    <path d="M4.67986 6.59996H5.31986C5.40473 6.59996 5.48613 6.56625 5.54614 6.50624C5.60615 6.44622 5.63986 6.36483 5.63986 6.27996C5.63986 6.19509 5.60615 6.1137 5.54614 6.05369C5.48613 5.99367 5.40473 5.95996 5.31986 5.95996H4.67986C4.59499 5.95996 4.5136 5.99367 4.45359 6.05369C4.39358 6.1137 4.35986 6.19509 4.35986 6.27996C4.35986 6.36483 4.39358 6.44622 4.45359 6.50624C4.5136 6.56625 4.59499 6.59996 4.67986 6.59996Z" fill="black"/>
    <path d="M6.91973 6.59996H7.55973C7.6446 6.59996 7.72599 6.56625 7.78601 6.50624C7.84602 6.44622 7.87973 6.36483 7.87973 6.27996C7.87973 6.19509 7.84602 6.1137 7.78601 6.05369C7.72599 5.99367 7.6446 5.95996 7.55973 5.95996H6.91973C6.83486 5.95996 6.75347 5.99367 6.69346 6.05369C6.63345 6.1137 6.59973 6.19509 6.59973 6.27996C6.59973 6.36483 6.63345 6.44622 6.69346 6.50624C6.75347 6.56625 6.83486 6.59996 6.91973 6.59996Z" fill="black"/>
    <path d="M6.91973 5.31969H7.55973C7.6446 5.31969 7.72599 5.28597 7.78601 5.22596C7.84602 5.16595 7.87973 5.08456 7.87973 4.99969C7.87973 4.91482 7.84602 4.83343 7.78601 4.77341C7.72599 4.7134 7.6446 4.67969 7.55973 4.67969H6.91973C6.83486 4.67969 6.75347 4.7134 6.69346 4.77341C6.63345 4.83343 6.59973 4.91482 6.59973 4.99969C6.59973 5.08456 6.63345 5.16595 6.69346 5.22596C6.75347 5.28597 6.83486 5.31969 6.91973 5.31969Z" fill="black"/>
    <path d="M2.44 7.87975H3.08C3.16486 7.87975 3.24626 7.84603 3.30627 7.78602C3.36628 7.72601 3.4 7.64462 3.4 7.55975C3.4 7.47488 3.36628 7.39348 3.30627 7.33347C3.24626 7.27346 3.16486 7.23975 3.08 7.23975H2.44C2.35513 7.23975 2.27373 7.27346 2.21372 7.33347C2.15371 7.39348 2.12 7.47488 2.12 7.55975C2.12 7.64462 2.15371 7.72601 2.21372 7.78602C2.27373 7.84603 2.35513 7.87975 2.44 7.87975Z" fill="black"/>
    <path d="M4.67986 7.87975H5.31986C5.40473 7.87975 5.48613 7.84603 5.54614 7.78602C5.60615 7.72601 5.63986 7.64462 5.63986 7.55975C5.63986 7.47488 5.60615 7.39348 5.54614 7.33347C5.48613 7.27346 5.40473 7.23975 5.31986 7.23975H4.67986C4.59499 7.23975 4.5136 7.27346 4.45359 7.33347C4.39358 7.39348 4.35986 7.47488 4.35986 7.55975C4.35986 7.64462 4.39358 7.72601 4.45359 7.78602C4.5136 7.84603 4.59499 7.87975 4.67986 7.87975Z" fill="black"/>
    <path d="M6.91973 7.87975H7.55973C7.6446 7.87975 7.72599 7.84603 7.78601 7.78602C7.84602 7.72601 7.87973 7.64462 7.87973 7.55975C7.87973 7.47488 7.84602 7.39348 7.78601 7.33347C7.72599 7.27346 7.6446 7.23975 7.55973 7.23975H6.91973C6.83486 7.23975 6.75347 7.27346 6.69346 7.33347C6.63345 7.39348 6.59973 7.47488 6.59973 7.55975C6.59973 7.64462 6.63345 7.72601 6.69346 7.78602C6.75347 7.84603 6.83486 7.87975 6.91973 7.87975Z" fill="black"/>
</svg>
