<svg width="38" height="33" viewBox="0 0 38 33" fill="none" xmlns="http://www.w3.org/2000/svg">
    <path d="M7.09864 17.5598C7.09668 17.5494 7.09491 17.539 7.09332 17.5286L4.85644 4.41234C4.63544 3.11646 3.48817 2.16667 2.14386 2.16667H1.58332C1.07706 2.16667 0.666656 1.76559 0.666656 1.27083C0.666656 0.776078 1.07706 0.375 1.58332 0.375H2.14386C4.32886 0.375 6.20154 1.88052 6.63463 3.95833H36.4167C37.0257 3.95833 37.4654 4.528 37.2981 5.10027L33.6314 17.6419C33.519 18.0265 33.1593 18.2917 32.75 18.2917H9.08208L9.31021 19.6293C9.53121 20.9252 10.6785 21.875 12.0228 21.875H32.75C33.2563 21.875 33.6667 22.2761 33.6667 22.7708C33.6667 23.2656 33.2563 23.6667 32.75 23.6667H12.0228C9.78228 23.6667 7.87016 22.0837 7.50182 19.9239L7.09864 17.5598ZM6.94319 5.75L8.77652 16.5H32.0585L35.2014 5.75H6.94319ZM11.6667 32.625C9.64161 32.625 7.99999 31.0207 7.99999 29.0417C7.99999 27.0626 9.64161 25.4583 11.6667 25.4583C13.6917 25.4583 15.3333 27.0626 15.3333 29.0417C15.3333 31.0207 13.6917 32.625 11.6667 32.625ZM11.6667 30.8333C12.6792 30.8333 13.5 30.0312 13.5 29.0417C13.5 28.0522 12.6792 27.25 11.6667 27.25C10.6541 27.25 9.83332 28.0522 9.83332 29.0417C9.83332 30.0312 10.6541 30.8333 11.6667 30.8333ZM28.1667 32.625C26.1416 32.625 24.5 31.0207 24.5 29.0417C24.5 27.0626 26.1416 25.4583 28.1667 25.4583C30.1917 25.4583 31.8333 27.0626 31.8333 29.0417C31.8333 31.0207 30.1917 32.625 28.1667 32.625ZM28.1667 30.8333C29.1792 30.8333 30 30.0312 30 29.0417C30 28.0522 29.1792 27.25 28.1667 27.25C27.1541 27.25 26.3333 28.0522 26.3333 29.0417C26.3333 30.0312 27.1541 30.8333 28.1667 30.8333Z" fill="#0DA180"/>
</svg>
