<svg width="44" height="44" viewBox="0 0 44 44" fill="none" xmlns="http://www.w3.org/2000/svg">
    <path d="M34 0H10C4.48584 0 0 4.48584 0 10V34C0 39.5142 4.48584 44 10 44H34C39.5142 44 44 39.5142 44 34V10C44 4.48584 39.5142 0 34 0ZM40 34C40 37.3086 37.3086 40 34 40H10C6.69141 40 4 37.3086 4 34V10C4 6.69141 6.69141 4 10 4H34C37.3086 4 40 6.69141 40 10V34ZM13 24V35C13 36.1045 12.1045 37 11 37C9.89551 37 9 36.1045 9 35V24C9 22.8955 9.89551 22 11 22C12.1045 22 13 22.8955 13 24ZM35 9V35C35 36.1045 34.1045 37 33 37C31.8955 37 31 36.1045 31 35V9C31 7.89551 31.8955 7 33 7C34.1045 7 35 7.89551 35 9ZM24 14V35C24 36.1045 23.1045 37 22 37C20.8955 37 20 36.1045 20 35V14C20 12.8955 20.8955 12 22 12C23.1045 12 24 12.8955 24 14Z" fill="#BFB692"/>
</svg>
