<svg width="26" height="26" viewBox="0 0 26 26" fill="none" xmlns="http://www.w3.org/2000/svg">
    <path d="M25.9999 13.3117C25.9999 12.4337 25.9132 11.5274 25.7687 10.6777H13.2563V15.6907H20.4228C20.1338 17.3051 19.1802 18.7212 17.7643 19.6275L22.041 22.8845C24.555 20.5904 25.9999 17.2484 25.9999 13.3117Z" fill="#E5E5D6"/>
    <path d="M13.2564 25.9999C16.8396 25.9999 19.8449 24.8387 22.0411 22.8561L17.7643 19.6274C16.5796 20.4204 15.048 20.8736 13.2564 20.8736C9.7888 20.8736 6.87021 18.5795 5.80102 15.5208L1.40869 18.8344C3.66265 23.2243 8.22836 25.9999 13.2564 25.9999Z" fill="#C9C9A8"/>
    <path d="M5.80105 15.4927C5.25201 13.8783 5.25201 12.1223 5.80105 10.508L1.40872 7.16602C-0.469575 10.8479 -0.469575 15.1811 1.40872 18.8346L5.80105 15.4927Z" fill="#E8E8CA"/>
    <path d="M13.2564 5.15508C15.1347 5.12676 16.9841 5.83481 18.3423 7.10929L22.1278 3.3708C19.7293 1.16169 16.5507 -0.0278276 13.2564 0.000494299C8.22836 0.000494299 3.66265 2.77604 1.40869 7.16594L5.80102 10.5079C6.87021 7.42083 9.7888 5.15508 13.2564 5.15508Z" fill="#FFFFF8"/>
</svg>
