<svg width="93" height="74" viewBox="0 0 93 74" fill="none" xmlns="http://www.w3.org/2000/svg">
    <path d="M63.0039 0.75C67.4257 0.750221 71.0234 4.34765 71.0234 8.76953V41.1797C71.0233 45.6015 67.4257 49.199 63.0039 49.1992H25.5996L14.5771 60.2217C14.1473 60.6514 13.5979 60.9098 13.0244 60.9834L12.9971 61.0117H12.6836C12.4272 61.0117 12.1695 60.9745 11.918 60.8984L11.6689 60.8096C10.6742 60.3963 10.0313 59.4315 10.0312 58.3555V49.1992H8.76953C4.34758 49.1992 0.750101 45.6016 0.75 41.1797V8.76953C0.75 4.34752 4.34752 0.75 8.76953 0.75H63.0039ZM8.6123 4.3125C6.22212 4.39365 4.30078 6.36395 4.30078 8.77344V41.1836C4.30094 43.6442 6.30494 45.6484 8.76562 45.6484H10.1719C12.0501 45.6485 13.582 47.1749 13.582 49.0586V56.1895L23.1299 46.6416C23.7713 46.0002 24.636 45.6523 25.5508 45.6523H62.9951C65.4559 45.6523 67.4599 43.6482 67.46 41.1875V8.77734C67.4599 6.31657 65.4559 4.3125 62.9951 4.3125H8.6123Z" fill="#01795D" stroke="#01795D" stroke-width="1.5"/>
    <path d="M85.2847 24.4529C88.988 24.4529 91.9995 27.4645 91.9995 31.1677V56.7849C91.9994 60.4881 88.9878 63.4998 85.2847 63.4998H84.6558V70.3708C84.6557 71.3719 84.0527 72.2656 83.1294 72.6462L83.1284 72.6453C82.8193 72.7739 82.4957 72.8357 82.1753 72.8357H80.3618L80.7944 72.4031C80.6701 72.318 80.5514 72.2216 80.4419 72.1121L71.8257 63.4958H42.4175C38.7143 63.4958 35.7028 60.4841 35.7026 56.781V47.4412C35.7026 46.4624 36.4937 45.6638 37.48 45.6638C38.4606 45.6638 39.2573 46.4606 39.2573 47.4412V56.781C39.2575 58.5224 40.6751 59.9373 42.4136 59.9373H72.0073C72.8278 59.9373 73.6067 60.2495 74.1821 60.825L81.1011 67.7439V63.0193C81.1011 61.3199 82.4838 59.9373 84.1831 59.9373H85.2847C87.0271 59.9373 88.4446 58.5184 88.4448 56.781V31.1638C88.4448 29.4228 87.0277 28.0076 85.2847 28.0076H69.2339C68.2533 28.0076 67.4566 27.2107 67.4565 26.2302C67.4565 25.2497 68.2533 24.4529 69.2339 24.4529H85.2847Z" fill="#01795D" stroke="#01795D" stroke-width="1.5"/>
    <path d="M42.6836 10.668C43.67 10.668 44.4609 11.4666 44.4609 12.4453V28.7812C44.4609 29.76 43.6699 30.5586 42.6836 30.5586C41.7029 30.5586 40.9062 29.7618 40.9062 28.7812V12.4453C40.9062 11.4665 41.6973 10.668 42.6836 10.668Z" fill="#01795D" stroke="#01795D" stroke-width="1.5"/>
    <path d="M28.418 8.25903C29.8424 8.14766 32.4727 7.94168 35.291 8.17212C38.0084 8.39431 41.0084 9.02944 43.2822 10.6399H49.9639C51.585 10.64 52.9052 11.9601 52.9053 13.5813V27.6125C52.9052 29.2336 51.585 30.5539 49.9639 30.554H42.9023C42.5567 30.6558 41.5546 31.0201 40.457 32.0588C39.2557 33.1959 37.8982 35.1798 37.1826 38.6204V38.6213C36.844 40.2419 35.6031 41.4395 34.0762 41.7727L34.0928 41.8743H33.2139C33.0575 41.8742 32.898 41.8644 32.7393 41.8459C30.6371 41.6192 29.113 39.831 29.1797 37.7063L29.2793 30.2297H26.8711L25.9658 30.2356C25.0421 30.2287 24.0765 30.1742 23.1846 29.9846C21.9935 29.7314 20.8272 29.2141 20.082 28.137L20.0811 28.136C19.3005 27.0043 19.2168 25.6256 19.6494 24.0725C19.2835 23.5155 18.986 22.8055 18.916 21.97C18.8377 21.0347 19.0454 19.9906 19.6816 18.8899C19.2866 17.4381 19.2334 15.2493 21.0127 13.7678C21.0486 13.213 21.1942 12.5442 21.5771 11.8489V11.8479C22.4842 10.2051 24.2915 9.12581 26.7275 8.5188V8.51782C27.1998 8.38869 27.6445 8.3352 28.0078 8.29712L28.0215 8.29028L28.168 8.27856L28.418 8.25903ZM34.9521 11.7102C32.4484 11.516 30.0414 11.7032 28.6943 11.8069L28.6934 11.8059L28.4785 11.8235C28.121 11.8603 27.8947 11.8909 27.6973 11.9407L27.6943 11.9426L27.6133 11.9622C25.906 12.3843 25.0052 12.9978 24.6914 13.5657V13.5667C24.5869 13.7554 24.5603 13.9231 24.5566 14.0374C24.5548 14.095 24.5582 14.1388 24.5615 14.1633C24.563 14.1743 24.5649 14.1812 24.5654 14.1838C24.8106 15.0168 24.42 15.9105 23.627 16.2874L23.626 16.2864C23.3337 16.4281 23.1915 16.5975 23.1133 16.7512C23.0291 16.9167 22.9928 17.1185 23.001 17.3489C23.018 17.8282 23.218 18.2751 23.2578 18.3577C23.5495 18.9617 23.4731 19.6766 23.0703 20.2073L23.0684 20.2102C22.4382 21.033 22.4336 21.5477 22.4873 21.802C22.5481 22.0892 22.7286 22.2584 22.7754 22.2971H22.7744C23.3929 22.7922 23.5895 23.6172 23.3066 24.3342C23.156 24.7165 23.0242 25.131 22.9707 25.4954C22.913 25.8889 22.971 26.0636 23.0039 26.1125L23.0459 26.1594C23.1068 26.2148 23.2282 26.294 23.4521 26.3743C23.7363 26.4762 24.1029 26.55 24.5186 26.5989C25.3493 26.6966 26.2493 26.682 26.8232 26.6721H31.3789L31.416 26.7083C31.7638 26.7756 32.0896 26.946 32.3438 27.2053C32.6705 27.5388 32.8597 27.9946 32.8535 28.4729L32.8545 28.4739L32.7334 37.7747V37.8069C32.7246 38.1036 32.9184 38.2872 33.1221 38.3088H33.1211C33.135 38.3102 33.1509 38.311 33.168 38.3137C33.4132 38.333 33.6473 38.1737 33.708 37.8928C34.6773 33.2296 36.7138 30.5194 38.5986 28.969C40.4716 27.4284 42.1471 27.0708 42.3594 27.0315L42.3652 27.0305C42.4507 27.0154 42.5584 27.0002 42.6875 27.0002H49.3545V14.1995H42.6875C42.2766 14.1995 41.8756 14.0578 41.5557 13.7922V13.7913C39.9618 12.4827 37.4831 11.9065 34.9521 11.7102Z" fill="#01795D" stroke="#01795D" stroke-width="1.5"/>
</svg>
