<svg width="15" height="16" viewBox="0 0 15 16" fill="none" xmlns="http://www.w3.org/2000/svg">
    <path d="M7.5 0.5C7.71844 0.5 7.93264 0.563647 8.11816 0.683594L8.19531 0.738281L14.0283 5.21777C14.1733 5.32914 14.2928 5.47433 14.375 5.64258C14.4572 5.81086 14.5 5.99728 14.5 6.18652V14.293C14.5 14.6166 14.3743 14.925 14.1543 15.1504C13.9345 15.3754 13.6385 15.5 13.333 15.5H1.66699C1.39964 15.5 1.1396 15.405 0.931641 15.2305L0.845703 15.1504C0.625731 14.925 0.5 14.6166 0.5 14.293V6.18652L0.507812 6.0459C0.523746 5.90563 0.563296 5.76895 0.625 5.64258C0.686586 5.51647 0.768851 5.40329 0.867188 5.30762L0.97168 5.21777L6.80469 0.738281C6.98153 0.602469 7.19049 0.521798 7.40723 0.503906L7.5 0.5Z" fill="#00473C" stroke="#00473C"/>
    <path d="M4.75435 10.6709C5.39541 11.4806 6.38704 12.0001 7.5 12.0001C8.61296 12.0001 9.60459 11.4806 10.2457 10.6709" stroke="#FFFFF8" stroke-width="0.8" stroke-linecap="round"/>
</svg>
