<svg width="15" height="16" viewBox="0 0 15 16" fill="none" xmlns="http://www.w3.org/2000/svg">
    <path d="M7.5 0.75C7.64546 0.75 7.78925 0.785909 7.91895 0.855469L8.04297 0.936523L13.877 5.41602C13.9909 5.50359 14.085 5.61907 14.1504 5.75293C14.2157 5.88677 14.25 6.03529 14.25 6.18652V14.293C14.25 14.5524 14.1495 14.7984 13.9756 14.9766C13.8022 15.154 13.5703 15.25 13.333 15.25H1.66699C1.4595 15.25 1.25636 15.1762 1.09277 15.0391L1.02441 14.9766C0.850472 14.7984 0.75 14.5524 0.75 14.293V6.18652L0.756836 6.07422C0.76955 5.96225 0.800609 5.85342 0.849609 5.75293C0.898628 5.65254 0.964401 5.5628 1.04199 5.4873L1.12305 5.41602L6.95703 0.936523C7.07602 0.845143 7.21269 0.785525 7.35547 0.761719L7.5 0.75Z" stroke="#BFB692" stroke-width="1.5"/>
    <path d="M4.75433 10.6709C5.39539 11.4806 6.38702 12.0001 7.49998 12.0001C8.61294 12.0001 9.60458 11.4806 10.2456 10.6709" stroke="#BFB692" stroke-width="0.8" stroke-linecap="round"/>
</svg>
