<svg width="15" height="15" viewBox="0 0 15 15" fill="none" xmlns="http://www.w3.org/2000/svg">
    <path d="M7.5 0.75C11.2279 0.75 14.25 3.77208 14.25 7.5C14.25 11.2279 11.2279 14.25 7.5 14.25C3.77208 14.25 0.75 11.2279 0.75 7.5C0.75 3.77208 3.77208 0.75 7.5 0.75Z" stroke="#BFB692" stroke-width="1.5"/>
    <path d="M7.49998 12.3333C7.7301 12.3333 7.91665 12.1468 7.91665 11.9167C7.91665 11.6865 7.7301 11.5 7.49998 11.5C7.26986 11.5 7.08331 11.6865 7.08331 11.9167C7.08331 12.1468 7.26986 12.3333 7.49998 12.3333Z" fill="#BFB692" stroke="#BFB692" stroke-width="0.8"/>
    <path d="M7.5 10.4998V9.65075C7.5 8.86409 8.00333 8.16575 8.75 7.91658C9.11423 7.79567 9.43108 7.56301 9.65548 7.25168C9.87989 6.94035 10.0004 6.5662 10 6.18242V5.75492C10 4.41659 8.91667 3.33325 7.57833 3.33325H7.5C6.83696 3.33325 6.20107 3.59664 5.73223 4.06549C5.26339 4.53433 5 5.17021 5 5.83325" stroke="#BFB692" stroke-width="1.5"/>
</svg>
