<svg width="90" height="90" viewBox="0 0 90 90" fill="none" xmlns="http://www.w3.org/2000/svg">
    <path d="M45 0C36.0999 0 27.3996 2.6392 19.9994 7.58387C12.5991 12.5285 6.83138 19.5566 3.42544 27.7792C0.0194979 36.0019 -0.871652 45.0499 0.864683 53.7791C2.60102 62.5082 6.88685 70.5264 13.1802 76.8198C19.4736 83.1132 27.4918 87.399 36.221 89.1353C44.9501 90.8717 53.9981 89.9805 62.2208 86.5746C70.4435 83.1686 77.4715 77.4009 82.4162 70.0007C87.3608 62.6005 90 53.9002 90 45C90 33.0653 85.259 21.6193 76.8198 13.1802C68.3807 4.74106 56.9348 0 45 0ZM49.19 70H40.41V61.35H49.19V70ZM61 40.16C59.82 42.0267 57.2934 44.57 53.42 47.79C51.934 48.8745 50.6682 50.232 49.69 51.79C49.0881 53.54 48.8532 55.3952 49 57.24H40.41C40.41 56 40.41 55.2467 40.41 54.98C40.3199 52.6066 40.7928 50.2456 41.79 48.09C43.205 45.7181 45.074 43.6486 47.29 42C49.0729 40.6635 50.745 39.1854 52.29 37.58C53.1033 36.5374 53.5434 35.2522 53.54 33.93C53.5382 33.0252 53.3365 32.1321 52.9492 31.3144C52.562 30.4967 51.9988 29.7747 51.3 29.2C49.6257 27.7972 47.4812 27.0824 45.3 27.2C43.1163 27.1357 40.9837 27.8679 39.3 29.26C37.5328 30.9367 36.3721 33.1525 36 35.56H27.29C27.4959 31.2524 29.3379 27.1858 32.44 24.19C35.5934 21.3967 39.7567 20 44.93 20C50.3767 20 54.71 21.4233 57.93 24.27C59.4196 25.467 60.6253 26.9792 61.4605 28.698C62.2957 30.4167 62.7395 32.2992 62.76 34.21C62.7599 36.3216 62.1486 38.3881 61 40.16Z" fill="#00473C"/>
</svg>
