<svg width="18" height="18" viewBox="0 0 18 18" fill="none" xmlns="http://www.w3.org/2000/svg">
    <path d="M13.9598 0H4.04018C1.80885 0 0 1.80885 0 4.04018V13.9598C0 16.1911 1.80885 18 4.04018 18H13.9598C16.1911 18 18 16.1911 18 13.9598V4.04018C18 1.80885 16.1911 0 13.9598 0Z" fill="#00473C"/>
    <path d="M6.23476 3.11719H11.8461C11.9708 3.17954 12.1579 3.17954 12.2826 3.24188C12.8297 3.33056 13.3414 3.5701 13.7599 3.93356C14.1784 4.29703 14.4873 4.77002 14.6518 5.29938C14.7439 5.60444 14.8065 5.91761 14.8388 6.23461V11.7213C14.7497 12.4166 14.4929 13.0799 14.0907 13.6541C13.7455 14.0539 13.3129 14.3688 12.8263 14.5743C12.3397 14.7797 11.8122 14.8702 11.285 14.8387H6.60885C5.77434 14.8792 4.95384 14.6131 4.30195 14.0905C3.90554 13.748 3.59271 13.3194 3.38739 12.8374C3.18207 12.3555 3.0897 11.8329 3.11733 11.3098V6.94538C3.10703 6.63234 3.12792 6.31906 3.17968 6.01016C3.24264 5.37095 3.50546 4.76785 3.93079 4.28656C4.35611 3.80527 4.92231 3.47027 5.54892 3.32917L6.23476 3.11719ZM4.30195 9.04029V11.4719C4.27537 11.7815 4.31679 12.0932 4.42333 12.3852C4.52986 12.6772 4.69892 12.9423 4.91868 13.162C5.13844 13.3818 5.40358 13.5509 5.69553 13.6574C5.98749 13.7639 6.2992 13.8054 6.60885 13.7788C8.22991 13.8411 9.85097 13.8411 11.472 13.7788C12.906 13.7788 13.7166 12.9059 13.7789 11.4719C13.8413 9.85082 13.8413 8.22976 13.7789 6.6087C13.7951 6.3015 13.7465 5.99434 13.6362 5.70713C13.526 5.41993 13.3567 5.15911 13.1391 4.94158C12.9216 4.72406 12.6608 4.55469 12.3736 4.44448C12.0864 4.33426 11.7792 4.28565 11.472 4.30181C9.85097 4.23946 8.22991 4.23946 6.60885 4.30181C6.2992 4.27522 5.98749 4.31665 5.69553 4.42318C5.40358 4.52971 5.13844 4.69878 4.91868 4.91853C4.69892 5.13829 4.52986 5.40343 4.42333 5.69539C4.31679 5.98734 4.27537 6.29906 4.30195 6.6087V9.04029Z" fill="white"/>
    <path d="M6.01025 9.06484C6.0119 8.25509 6.3343 7.47898 6.90688 6.9064C7.47946 6.33381 8.25558 6.01141 9.06533 6.00977C9.87059 6.02572 10.6384 6.35271 11.2079 6.92223C11.7775 7.49174 12.1045 8.25958 12.1204 9.06484C12.1188 9.87459 11.7964 10.6507 11.2238 11.2233C10.6512 11.7959 9.87508 12.1183 9.06533 12.1199C8.26007 12.104 7.49223 11.777 6.92271 11.2075C6.3532 10.6379 6.0262 9.8701 6.01025 9.06484ZM9.06533 7.13204C8.68664 7.12588 8.31473 7.23294 7.99728 7.4395C7.67983 7.64606 7.43128 7.94271 7.2835 8.29143C7.13573 8.64015 7.09545 9.02506 7.16782 9.39682C7.2402 9.76858 7.42194 10.1103 7.68975 10.3781C7.95756 10.6459 8.29924 10.8276 8.671 10.9C9.04276 10.9724 9.42767 10.9321 9.77639 10.7843C10.1251 10.6365 10.4218 10.388 10.6283 10.0705C10.8349 9.75309 10.9419 9.38118 10.9358 9.00249C10.9358 8.50642 10.7387 8.03066 10.3879 7.67988C10.0372 7.3291 9.5614 7.13204 9.06533 7.13204Z" fill="white"/>
    <path d="M11.4345 5.88535C11.431 5.78615 11.448 5.68731 11.4844 5.59496C11.5207 5.50261 11.5757 5.41873 11.6459 5.34855C11.7161 5.27837 11.8 5.22338 11.8923 5.18702C11.9847 5.15065 12.0835 5.13368 12.1827 5.13716C12.3768 5.15029 12.5596 5.23334 12.6972 5.3709C12.8347 5.50847 12.9178 5.69124 12.9309 5.88535C12.9309 6.08378 12.8521 6.27408 12.7118 6.41439C12.5714 6.5547 12.3811 6.63353 12.1827 6.63353C11.9843 6.63353 11.794 6.5547 11.6537 6.41439C11.5134 6.27408 11.4345 6.08378 11.4345 5.88535Z" fill="white"/>
</svg>
