<svg width="35" height="35" viewBox="0 0 35 35" fill="none" xmlns="http://www.w3.org/2000/svg">
    <g clip-path="url(#clip0_251_1048)">
        <mask id="mask0_251_1048" style="mask-type:luminance" maskUnits="userSpaceOnUse" x="0" y="0" width="35" height="35">
            <path d="M35 0H0V35H35V0Z" fill="white"/>
        </mask>
        <g mask="url(#mask0_251_1048)">
            <path d="M1.98486 32.7016C1.98486 33.1195 2.14158 33.4852 2.45501 33.7986C2.7162 34.0598 3.13411 34.2688 3.55202 34.2688H31.5521C31.97 34.2688 32.3356 34.112 32.6491 33.7986C32.9103 33.5374 33.1192 33.1195 33.1192 32.7016V13.53C33.1192 13.0076 32.2834 12.7464 30.5073 11.1792V3.34339C30.5073 1.93295 29.358 0.783691 27.9476 0.783691H7.10426C5.69382 0.783691 4.54456 1.93295 4.54456 3.34339V11.1792C2.08934 13.2165 1.93262 13.1643 1.93262 13.53V32.7016H1.98486ZM12.8506 22.6195L3.02964 32.4404V14.627C16.455 25.5971 11.8058 21.7837 12.8506 22.6195ZM31.97 14.627V32.4404L22.1491 22.6195C23.1939 21.7837 18.5446 25.5971 31.97 14.627ZM21.3655 23.2986L31.2386 33.1717H3.76098L13.6342 23.2986L15.8804 25.127C16.3506 25.4926 16.9252 25.7016 17.4998 25.7016C18.0745 25.7016 18.6491 25.4926 19.1192 25.127L21.3655 23.2986ZM31.6565 13.53L30.4028 14.5747V12.5374L31.6565 13.53ZM5.64158 3.34339C5.64158 2.50757 6.32068 1.82847 7.1565 1.82847H27.8953C28.7312 1.82847 29.4103 2.50757 29.4103 3.34339V15.4106L18.4924 24.2912C17.9177 24.7613 17.1342 24.7613 16.6118 24.2912L5.69382 15.4106C5.64158 12.6941 5.64158 5.85086 5.64158 3.34339ZM4.5968 12.5374V14.5747L3.34307 13.53L4.5968 12.5374Z" fill="#01795D"/>
            <path d="M16.9253 9.29832C16.7686 9.45504 16.6118 9.71624 16.6118 10.0819C16.6118 10.9177 17.3432 11.1267 17.3432 11.2834C17.3432 11.3356 17.3432 11.3356 17.1865 11.4924C16.9775 11.6491 16.6118 11.9625 16.6118 12.4849C16.6118 13.164 17.6566 13.164 17.6566 12.4849C17.6566 12.4327 17.6566 12.4327 17.8133 12.2759C19.1715 11.1267 17.6566 10.1341 17.6566 10.0297C17.6566 9.87295 18.179 9.71624 18.3357 9.14161C19.4327 8.67146 20.2686 7.36549 20.2686 5.74609C20.2686 3.81325 19.0148 2.19385 17.4999 2.19385C15.985 2.19385 14.7312 3.76101 14.7312 5.74609C14.7312 7.57444 15.6715 8.98489 16.9253 9.29832ZM17.4999 3.39534C18.4402 3.39534 19.2238 4.54459 19.2238 5.9028C19.2238 7.26101 18.4402 8.35803 17.4999 8.35803C16.5596 8.35803 15.776 7.20877 15.776 5.85056C15.776 4.49236 16.5596 3.39534 17.4999 3.39534ZM12.7462 15.4103H22.2536C22.5671 15.4103 22.776 15.2013 22.776 14.8879C22.776 14.5744 22.5671 14.3655 22.2536 14.3655H12.7462C12.4327 14.3655 12.2238 14.5744 12.2238 14.8879C12.2238 15.2013 12.4327 15.4103 12.7462 15.4103ZM22.2536 18.6491H12.7462C12.4327 18.6491 12.2238 18.858 12.2238 19.1715C12.2238 19.4849 12.4327 19.6938 12.7462 19.6938H22.2536C22.5671 19.6938 22.776 19.4849 22.776 19.1715C22.776 18.858 22.5671 18.6491 22.2536 18.6491ZM10.1342 17.5521H24.9178C25.2312 17.5521 25.4402 17.3431 25.4402 17.0297C25.4402 16.7162 25.2312 16.5073 24.9178 16.5073H10.1342C9.82077 16.5073 9.61182 16.7162 9.61182 17.0297C9.61182 17.3431 9.82077 17.5521 10.1342 17.5521Z" fill="#01795D"/>
        </g>
    </g>
    <defs>
        <clipPath id="clip0_251_1048">
            <rect width="35" height="35" fill="white"/>
        </clipPath>
    </defs>
</svg>
