<svg width="94" height="94" viewBox="0 0 94 94" fill="none" xmlns="http://www.w3.org/2000/svg">
    <path d="M92.312 91.141H57.289C56.7968 88.184 55.121 85.4965 52.164 85.4965C51.6405 85.4965 51.5233 85.4106 50.8671 84.1254C50.203 82.8168 49.1991 80.8363 46.5233 78.8676C42.0389 75.5707 38.8514 77.4301 35.4803 79.395C34.7263 79.8364 33.9373 80.2973 33.0897 80.7231C32.6522 80.9457 32.1912 81.016 31.7225 81.0239V71.5005L35.4022 67.8208C36.1053 67.9458 36.8124 68.0278 37.5194 68.0278C40.8319 68.0278 44.1327 66.6801 46.5819 64.2309C49.7225 61.0903 51.0507 56.5512 50.0507 52.3789C49.9491 51.9492 49.6132 51.6133 49.1835 51.5117C45.0155 50.5156 40.4726 51.8398 37.3315 54.9805C35.1479 57.1641 33.8627 60.0352 33.6088 62.9805L39.2846 57.3047C39.7416 56.8477 40.4838 56.8477 40.9408 57.3047C41.3978 57.7617 41.3978 58.5039 40.9408 58.9609L31.7181 68.1836V56.3246C35.0345 54.0121 37.0853 50.0902 37.0853 45.8906C37.0853 41.4531 34.8158 37.3008 31.1595 35.0586C30.7845 34.8281 30.3079 34.8281 29.9329 35.0586C26.2767 37.3008 24.0071 41.4531 24.0071 45.8906C24.0071 50.0898 26.0579 54.0117 29.3743 56.3246V74.4926L20.1516 65.2699C19.6945 64.8129 19.6945 64.0707 20.1516 63.6137C20.6086 63.1567 21.3508 63.1567 21.8078 63.6137L27.4836 69.2895C27.2258 66.3442 25.9445 63.477 23.7609 61.2895C20.6242 58.1489 16.0851 56.8207 11.9089 57.8207C11.4792 57.9223 11.1432 58.2582 11.0417 58.6879C10.0417 62.8598 11.3698 67.3988 14.5105 70.5399C16.9597 72.9891 20.2566 74.3368 23.573 74.3368C24.2839 74.3368 24.991 74.2548 25.6902 74.1298L29.3699 77.8095V85.79C29.3699 86.4384 28.8464 86.9619 28.198 86.9619C27.5495 86.9619 27.0261 86.4384 27.0261 85.79V79.2978C26.8855 79.2196 26.7448 79.1415 26.6003 79.0595C24.2175 77.7197 21.5144 76.2001 18.5964 76.5712C16.53 76.8368 15.5691 78.747 14.7253 80.4345C13.5026 82.8759 12.5691 84.3407 10.1628 84.2275C8.5808 84.1494 7.237 84.622 6.1589 85.6377C4.4948 87.2002 3.9401 89.6885 3.7527 91.1416H1.6824C1.03396 91.1416 0.510498 91.665 0.510498 92.3135C0.510498 92.9619 1.03394 93.4854 1.6824 93.4854H92.3114C92.9598 93.4854 93.4833 92.9619 93.4833 92.3135C93.4833 91.665 92.9604 91.141 92.312 91.141Z" fill="#00473C"/>
    <path d="M36.0039 36.6881C36.6328 36.774 37.2383 36.3248 37.3203 35.6803C37.875 31.5084 42.7461 30.4772 42.9531 30.4342C43.5859 30.3092 44 29.692 43.875 29.0592C43.75 28.4225 43.1289 28.0084 42.5 28.1373C42.2265 28.192 35.7773 29.524 35 35.3756C34.914 36.0162 35.3672 36.6061 36.0078 36.692L36.0039 36.6881Z" fill="#00473C"/>
    <path d="M42.8049 34.93C42.3596 34.4574 41.6174 34.4418 41.1487 34.8871C40.2698 35.723 39.0589 37.7426 40.1057 40.0277C40.301 40.4574 40.7268 40.7113 41.1721 40.7113C41.3362 40.7113 41.5002 40.6761 41.6565 40.6058C42.2463 40.3363 42.5041 39.6409 42.2346 39.055C41.6408 37.7542 42.6408 36.7034 42.7658 36.5823C43.2307 36.137 43.2463 35.3987 42.8049 34.93Z" fill="#00473C"/>
    <path d="M61.2771 32.414L77.297 24.5429C77.883 24.2578 78.5823 24.4961 78.8674 25.0781C79.1525 25.6601 78.9142 26.3593 78.3322 26.6484L62.1872 34.582L63.2184 37.0429C63.6754 38.1288 64.57 38.9921 65.6754 39.4023C66.1598 39.582 66.6715 39.6718 67.1793 39.6718C67.8316 39.6718 68.484 39.5234 69.0777 39.2343L86.7847 30.5351C87.8433 30.0156 88.648 29.0703 88.9956 27.9453C89.3432 26.8203 89.2065 25.5859 88.6245 24.5586L86.894 21.5117C90.0581 20.9531 91.6713 19.1992 92.4682 17.6914C94.5385 13.7656 93.1713 8.00783 90.7534 4.34743C89.0425 1.75763 86.9214 0.378626 84.8979 0.534926C80.8081 0.870866 78.5151 3.42943 77.4331 5.67163C76.1831 4.78491 74.5112 4.58573 73.0503 5.30054L69.898 6.84744L68.648 4.30444C67.3941 1.74974 64.2964 0.691137 61.7378 1.94894C59.1831 3.20284 58.1245 6.30444 59.3823 8.85914L63.9878 18.2341C64.273 18.8162 64.0347 19.5153 63.4526 19.8044C63.2847 19.8865 63.1089 19.9255 62.937 19.9255C62.5034 19.9255 62.0855 19.6833 61.8823 19.2693L58.5268 12.4412L57.4799 12.9568C55.4447 13.9568 54.5346 16.3826 55.4135 18.4763L61.269 32.4253L61.2771 32.414ZM85.0931 2.86304C86.1751 2.75366 87.5931 3.80445 88.804 5.63254C90.7923 8.64034 92.0267 13.4997 90.3978 16.5895C89.5423 18.2145 87.9173 19.0934 85.6361 19.277L79.1282 7.80404C79.4642 6.63604 80.808 3.21464 85.0931 2.86304ZM62.7381 10.3591L61.4881 7.81614C60.8045 6.42164 61.3787 4.72634 62.7772 4.04274C64.1717 3.35524 65.867 3.93727 66.5506 5.32794L67.8006 7.87094L62.7381 10.3591Z" fill="#00473C"/>
    <path d="M46.6129 30.0352C46.8082 30.4336 47.2105 30.6875 47.652 30.6914L58.054 30.7969L54.3587 21.9922L45.0931 23.5156C44.7259 23.5742 44.4095 23.8046 44.2415 24.1367C44.0736 24.4648 44.0696 24.8554 44.2298 25.1914L46.6087 30.0391L46.6129 30.0352Z" fill="#00473C"/>
</svg>
