<svg width="14" height="14" viewBox="0 0 14 14" fill="none" xmlns="http://www.w3.org/2000/svg">
    <path fill-rule="evenodd" clip-rule="evenodd" d="M1.48998 1.58729C1.47483 1.77275 1.47368 2.02902 1.47368 2.48889V11.5111C1.47368 11.971 1.47483 12.2273 1.48998 12.4127C1.49317 12.4517 1.49657 12.4804 1.49942 12.5006C1.51957 12.5034 1.54828 12.5068 1.58729 12.51C1.77275 12.5252 2.02902 12.5263 2.48889 12.5263H11.5111C11.971 12.5263 12.2273 12.5252 12.4127 12.51C12.4517 12.5068 12.4804 12.5034 12.5006 12.5006C12.5034 12.4804 12.5068 12.4517 12.51 12.4127C12.5252 12.2273 12.5263 11.971 12.5263 11.5111V2.48889C12.5263 2.02902 12.5252 1.77275 12.51 1.58729C12.5068 1.54828 12.5034 1.51956 12.5006 1.49942C12.4804 1.49657 12.4517 1.49317 12.4127 1.48998C12.2273 1.47483 11.971 1.47368 11.5111 1.47368H2.48889C2.02902 1.47368 1.77275 1.47483 1.58729 1.48998C1.54828 1.49317 1.51956 1.49657 1.49942 1.49942C1.49657 1.51956 1.49317 1.54828 1.48998 1.58729ZM0.169556 13.1507C0 12.8178 0 12.3822 0 11.5111V2.48889C0 1.61778 0 1.18222 0.169556 0.849333C0.31869 0.55665 0.55665 0.31869 0.849333 0.169556C1.18222 0 1.61778 0 2.48889 0H11.5111C12.3822 0 12.8178 0 13.1507 0.169556C13.4434 0.31869 13.6813 0.55665 13.8304 0.849333C14 1.18222 14 1.61778 14 2.48889V11.5111C14 12.3822 14 12.8178 13.8304 13.1507C13.6813 13.4434 13.4434 13.6813 13.1507 13.8304C12.8178 14 12.3822 14 11.5111 14H2.48889C1.61778 14 1.18222 14 0.849333 13.8304C0.55665 13.6813 0.31869 13.4434 0.169556 13.1507Z" fill="#BFB692"/>
    <path fill-rule="evenodd" clip-rule="evenodd" d="M0.531428 3.28769L13.3034 1.84675L13.4686 3.31114L10.0966 3.69157L12.6779 13.1928L11.2558 13.5791L8.61493 3.85873L0.696642 4.75208L0.531428 3.28769ZM5.5809 6.91813C4.88071 6.91813 4.18908 7.48811 4.18908 8.40609C4.18908 8.83054 4.38638 9.23305 4.70323 9.60421C4.98507 9.93438 5.32478 10.1952 5.5809 10.3659C5.83712 10.1952 6.1768 9.93448 6.45861 9.60443C6.77537 9.23346 6.97271 8.83095 6.97271 8.40609C6.97271 7.47967 6.31089 6.91813 5.5809 6.91813ZM2.7154 8.40609C2.7154 6.65402 4.08715 5.44444 5.5809 5.44444C7.12147 5.44444 8.44639 6.66246 8.44639 8.40609C8.44639 9.30689 8.02678 10.0373 7.57935 10.5614C7.13109 11.0863 6.60834 11.4605 6.28167 11.6679C6.07253 11.801 5.82964 11.8722 5.5809 11.8722C5.33187 11.8722 5.08872 11.8009 4.87942 11.6675C4.55255 11.4599 4.03028 11.0857 3.5824 10.561C3.13506 10.037 2.7154 9.30658 2.7154 8.40609Z" fill="#BFB692"/>
</svg>
