<svg width="16" height="15" viewBox="0 0 16 15" fill="none" xmlns="http://www.w3.org/2000/svg">
    <path fill-rule="evenodd" clip-rule="evenodd" d="M0.500061 3.5L15.3348 1.53561L15.5001 3L11.0966 3.69157L13.9222 14.1136L12.5001 14.5L9.61492 3.85873L0.665275 4.96439L0.500061 3.5ZM6.58089 6.91813C5.8807 6.91813 5.18907 7.48811 5.18907 8.40609C5.18907 8.83054 5.38637 9.23305 5.70322 9.60421C5.98507 9.93437 6.32477 10.1952 6.58089 10.3659C6.83711 10.1952 7.17679 9.93448 7.45861 9.60443C7.77536 9.23345 7.9727 8.83096 7.9727 8.40609C7.9727 7.47967 7.31088 6.91813 6.58089 6.91813ZM3.71539 8.40609C3.71539 6.65402 5.08714 5.44444 6.58089 5.44444C8.12146 5.44444 9.44639 6.66246 9.44639 8.40609C9.44639 9.30689 9.02677 10.0373 8.57934 10.5614C8.13108 11.0863 7.60833 11.4605 7.28166 11.6679C7.07252 11.801 6.82963 11.8722 6.58089 11.8722C6.33187 11.8722 6.08871 11.8009 5.87941 11.6675C5.55255 11.4599 5.03027 11.0857 4.58239 10.561C4.13505 10.037 3.71539 9.30658 3.71539 8.40609Z" fill="#FFFFF8"/>
</svg>
