<svg width="17" height="15" viewBox="0 0 17 15" fill="none" xmlns="http://www.w3.org/2000/svg">
    <path fill-rule="evenodd" clip-rule="evenodd" d="M14.3155 0.104248L14.3157 3.12618C13.3197 2.17075 11.9316 1.57794 10.3961 1.57794C7.36559 1.57794 4.90888 3.88719 4.90888 6.73583C4.90888 8.79335 6.19053 10.5695 8.04437 11.3974L8.04441 12.6306H11.18V14.1042H3.34109V12.6306H6.47666V10.4201H0.205555V0.104248H14.3155ZM10.3961 2.31478C12.9937 2.31478 15.0994 4.29417 15.0994 6.73583C15.0994 7.69088 14.7773 8.5752 14.2295 9.29801L16.2056 11.1555L15.097 12.1976L13.1207 10.3399C12.352 10.8543 11.4116 11.1569 10.3961 11.1569C7.79852 11.1569 5.69279 9.1775 5.69279 6.73583C5.69279 4.29417 7.79852 2.31478 10.3961 2.31478M10.3961 3.78847C8.6644 3.78847 7.26057 5.10805 7.26057 6.73583C7.26057 8.36361 8.6644 9.68319 10.3961 9.68319C12.1278 9.68319 13.5317 8.36361 13.5317 6.73583C13.5317 5.10805 12.1278 3.78847 10.3961 3.78847Z" fill="#00473C"/>
</svg>
