<svg width="94" height="94" viewBox="0 0 94 94" fill="none" xmlns="http://www.w3.org/2000/svg">
    <path d="M57.9882 0.500113H85.9652C88.0316 0.500113 89.9144 1.34777 91.2816 2.71491L91.2894 2.72272C92.6527 4.08992 93.5003 5.97273 93.5003 8.03523V36.0122C93.5003 38.0786 92.6527 39.9614 91.2855 41.3286L91.2777 41.3364C89.9105 42.6997 88.0277 43.5473 85.9652 43.5473H51.9532C51.1251 43.5473 50.4532 42.8755 50.4532 42.0473V8.03534C50.4532 5.96894 51.3009 4.08614 52.668 2.71894L52.6758 2.71113C54.043 1.34783 55.9257 0.500113 57.9882 0.500113ZM72.5152 63.2271C71.9293 62.6412 71.9293 61.6919 72.5152 61.106C73.1012 60.5201 74.0504 60.5201 74.6363 61.106L84.4449 70.9146C85.0309 71.5006 85.0309 72.4498 84.4449 73.0357L74.6363 82.8404C74.0543 83.4264 73.1051 83.4303 72.5191 82.8482C71.9332 82.2662 71.9293 81.317 72.5113 80.731L81.2652 71.9771L72.5113 63.2232L72.5152 63.2271ZM59.5032 63.2271C58.9173 62.6412 58.9173 61.6919 59.5032 61.106C60.0892 60.5201 61.0384 60.5201 61.6243 61.106L71.4329 70.9146C72.0189 71.5006 72.0189 72.4498 71.4329 73.0357L61.6243 82.8404C61.0423 83.4264 60.0931 83.4303 59.5071 82.8482C58.9212 82.2662 58.9173 81.317 59.4993 80.731L68.2532 71.9771L59.4993 63.2232L59.5032 63.2271ZM36.0072 93.5001H8.03023C5.96383 93.5001 4.08103 92.6525 2.71383 91.2853L2.70602 91.2775C1.34272 89.9103 0.495117 88.0275 0.495117 85.965V57.988C0.495117 55.9216 1.34278 54.0388 2.70992 52.6716L2.71773 52.6638C4.08493 51.3005 5.96773 50.4529 8.03023 50.4529H42.0422C42.8703 50.4529 43.5422 51.1248 43.5422 51.9529V85.9649C43.5422 88.0313 42.6946 89.9141 41.3274 91.2813L41.3196 91.2891C39.9524 92.6524 38.0697 93.5001 36.0072 93.5001ZM8.03023 90.5001H36.0072C37.2572 90.5001 38.39 89.9923 39.2103 89.172C40.0345 88.3478 40.5462 87.2111 40.5462 85.965V53.453H8.03423C6.78423 53.453 5.65143 53.9608 4.83113 54.7811C4.00691 55.6053 3.49523 56.742 3.49523 57.9881V85.9651C3.49523 87.2151 4.00304 88.3479 4.82333 89.1682C5.64755 89.9924 6.78423 90.5041 8.03033 90.5041L8.03023 90.5001ZM57.9832 90.5001H85.9602C87.2102 90.5001 88.343 89.9923 89.1633 89.172C89.9876 88.3478 90.4992 87.2111 90.4992 85.965V57.988C90.4992 56.738 89.9914 55.6052 89.1711 54.7849C88.3469 53.9607 87.2102 53.449 85.9641 53.449H53.4521V85.961C53.4521 87.211 53.9599 88.3438 54.7802 89.1641C55.6044 89.9883 56.7411 90.5 57.9872 90.5L57.9832 90.5001ZM85.9602 93.5001H57.9832C55.9168 93.5001 54.034 92.6525 52.6707 91.2892L52.6629 91.2814C51.2996 89.9142 50.4481 88.0314 50.4481 85.965V51.953C50.4481 51.1249 51.12 50.453 51.9481 50.453H85.9601C88.0265 50.453 89.9093 51.3007 91.2726 52.6639L91.2804 52.6717C92.6437 54.0389 93.4952 55.9217 93.4952 57.9881V85.9651C93.4952 88.0315 92.6476 89.9143 91.2843 91.2776L91.2765 91.2854C89.9093 92.6487 88.0266 93.5001 85.9602 93.5001ZM36.0072 3.50011H8.03023C6.78023 3.50011 5.64743 4.00792 4.82713 4.82821C4.00291 5.65243 3.49123 6.78911 3.49123 8.03521V36.0122C3.49123 37.2622 3.99904 38.395 4.81933 39.2153C5.64355 40.0395 6.78023 40.5512 8.02633 40.5512H40.5383V8.03921C40.5383 6.78921 40.0305 5.65641 39.2102 4.83611C38.386 4.01189 37.2493 3.50021 36.0032 3.50021L36.0072 3.50011ZM8.03023 0.500113H36.0072C38.0736 0.500113 39.9564 1.34777 41.3197 2.71101L41.3275 2.71882C42.6908 4.08602 43.5423 5.96883 43.5423 8.03523V42.0472C43.5423 42.8753 42.8705 43.5472 42.0423 43.5472H8.03034C5.96394 43.5472 4.08114 42.6996 2.71784 41.3363L2.71003 41.3285C1.34673 39.9613 0.495231 38.0785 0.495231 36.0121V8.03511C0.495231 5.96871 1.34289 4.08591 2.70613 2.72261L2.71394 2.7148C4.08114 1.3515 5.96383 0.500113 8.03023 0.500113ZM85.9562 3.50011H57.9792C56.7292 3.50011 55.5964 4.00792 54.7761 4.82821C53.9519 5.65243 53.4402 6.78911 53.4402 8.03521V40.5472H85.9522C87.2022 40.5472 88.335 40.0394 89.1553 39.2191C89.9795 38.3949 90.4912 37.2582 90.4912 36.0121V8.03511C90.4912 6.78511 89.9834 5.65231 89.1631 4.83201C88.3389 4.00779 87.2022 3.49611 85.9561 3.49611L85.9562 3.50011Z" stroke="#BFB692" stroke-width="3"/>
</svg>
