<svg width="94" height="94" viewBox="0 0 94 94" fill="none" xmlns="http://www.w3.org/2000/svg">
    <path d="M57.9881 0.499906H85.9651C88.0393 0.499906 89.926 1.34757 91.2893 2.71081C92.6526 4.07411 93.5002 5.96081 93.5002 8.03501V36.012C93.5002 38.0823 92.6526 39.9651 91.2893 41.3323C89.926 42.7034 88.0393 43.5511 85.9651 43.5511H51.9531C51.125 43.5511 50.4531 42.8792 50.4531 42.0511V8.03911C50.4531 5.96491 51.3008 4.07821 52.664 2.71491L52.7578 2.62897C54.1172 1.31257 55.9646 0.499906 57.9881 0.499906ZM72.5151 63.2269L81.2651 71.9769L72.5151 80.7269C71.9292 81.3128 71.9292 82.2621 72.5151 82.848C73.1011 83.4339 74.0503 83.4339 74.6362 82.848L84.4448 73.0394C85.0308 72.4535 85.0308 71.5042 84.4448 70.9183L74.6362 61.1058C74.0503 60.5199 73.101 60.5199 72.5151 61.1058C71.9292 61.6917 71.9292 62.641 72.5151 63.2269ZM59.5071 63.2191L68.261 71.973L59.5071 80.7269C58.9212 81.3128 58.9212 82.2621 59.5071 82.848C60.0931 83.4339 61.0423 83.4339 61.6282 82.848L71.4329 73.0355C72.015 72.4535 72.0189 71.5082 71.4368 70.9222L61.6282 61.1097C61.0462 60.5238 60.097 60.5199 59.511 61.1019C58.9251 61.6839 58.9212 62.6331 59.5032 63.2191L59.5071 63.2191ZM36.0111 93.4961H8.03412C5.95992 93.4961 4.07322 92.6484 2.70992 91.2852C1.34662 89.9219 0.499023 88.0352 0.499023 85.961V57.984C0.499023 55.9137 1.34668 54.0309 2.70992 52.6637C4.07322 51.2926 5.95992 50.4449 8.03412 50.4449H42.0461C42.8742 50.4449 43.5461 51.1168 43.5461 51.9449V85.9569C43.5461 88.0311 42.6985 89.9178 41.3352 91.2811L41.2415 91.367C39.8821 92.6834 38.0346 93.4961 36.0111 93.4961ZM85.9641 93.4961H57.9871C55.9598 93.4961 54.1121 92.6836 52.7566 91.3672L52.6629 91.2813C51.2996 89.918 50.452 88.0313 50.452 85.9571V51.9451C50.452 51.1169 51.1239 50.4451 51.952 50.4451H85.964C88.0382 50.4451 89.9249 51.2927 91.2882 52.656C92.6515 54.0271 93.4991 55.9099 93.4991 57.9802V85.9572C93.4991 88.0314 92.6514 89.9181 91.2882 91.2814C89.9249 92.6447 88.0382 93.4923 85.964 93.4923L85.9641 93.4961ZM8.03812 0.496094H36.0151C38.0424 0.496094 39.8901 1.30859 41.2456 2.62499L41.3394 2.71093C42.7027 4.07423 43.5503 5.96093 43.5503 8.03513V42.0471C43.5503 42.8753 42.8784 43.5471 42.0503 43.5471H8.03827C5.96407 43.5471 4.07737 42.6995 2.71407 41.3362C1.35077 39.9651 0.503174 38.0823 0.503174 36.012V8.03503C0.503174 5.96083 1.35083 4.07413 2.71407 2.71083C4.07737 1.34753 5.96407 0.499932 8.03827 0.499932L8.03812 0.496094Z" fill="#00473C"/>
</svg>
