<svg width="77" height="99" viewBox="0 0 77 99" fill="none" xmlns="http://www.w3.org/2000/svg">
    <path d="M38.4941 1C49.178 1 57.8298 9.64132 57.8301 20.3115V25.3818H62.0723C65.7477 25.3818 68.8648 28.1565 69.2998 31.8027L75.9365 87.5576C76.5385 92.6217 72.5379 97.1211 67.4395 97.1211H9.55664C4.45412 97.1209 0.457783 92.6213 1.05957 87.5576L7.69238 31.8076V31.8066C8.12708 28.1627 11.2306 25.3869 14.9082 25.3867H19.1621V20.3164C19.1621 10.4049 26.6279 2.2452 36.2529 1.13477L36.123 1H38.4941ZM14.8281 30.3281C13.677 30.3664 12.7379 31.225 12.6006 32.3867V32.3877L5.96777 88.1377C5.71021 90.3121 7.36636 92.1758 9.55664 92.1758L67.4395 92.1797C69.5611 92.1797 71.1816 90.4309 71.0469 88.3447L71.0283 88.1416L64.3955 32.3916V32.3906C64.2514 31.2038 63.2653 30.3281 62.0762 30.3281H57.834V39.3242C57.834 39.9732 57.5802 40.6007 57.1152 41.0684L57.1162 41.0693C56.6538 41.5383 56.022 41.8008 55.3652 41.8008C54.7954 41.8008 54.2411 41.6065 53.7979 41.2441L53.6152 41.0781C53.15 40.6128 52.8887 39.9793 52.8887 39.3242V38.3242H52.8926V30.3281H24.1074V39.3242C24.1074 39.9794 23.8462 40.6128 23.3809 41.0781C22.9127 41.5462 22.2821 41.8008 21.6309 41.8008C20.9729 41.8007 20.3442 41.5375 19.8809 41.0742L19.876 41.0693C19.4161 40.6028 19.1621 39.9747 19.1621 39.3242V30.3281H14.8281ZM51.374 54.1377C52.0335 54.14 52.6583 54.4102 53.1133 54.8701C54.0709 55.8343 54.0719 57.3903 53.1143 58.3545L53.1104 58.3574L38.2588 73.1738L38.2568 73.1748C38.1462 73.2847 38.0267 73.3802 37.9023 73.4648V73.4658C36.9425 74.1187 35.6268 74.0224 34.7734 73.1748L33.0527 71.4658H33.0615L25.917 64.3496L25.916 64.3486C25.4529 63.8854 25.1896 63.2565 25.1895 62.5986C25.1895 61.9442 25.4492 61.3136 25.915 60.8516C26.378 60.3847 27.0091 60.126 27.666 60.126C27.6791 60.126 27.6921 60.1267 27.7051 60.127V59.1436L29.4111 60.8477L36.5088 67.9346L49.6123 54.8555L49.6162 54.8506C50.0772 54.3962 50.7072 54.1339 51.3652 54.1377H51.374ZM38.498 5.94531C30.4946 5.9455 24.1084 12.3344 24.1084 20.3164V25.3867H52.8896V20.3164C52.8896 12.3345 46.5013 5.94531 38.498 5.94531Z" fill="black" stroke="black" stroke-width="2"/>
</svg>
