<svg width="21" height="19" viewBox="0 0 21 19" fill="none" xmlns="http://www.w3.org/2000/svg">
    <path d="M12.7271 12.0107C12.6859 12.0053 12.644 12.0099 12.6049 12.0243C12.5659 12.0386 12.5308 12.0622 12.5028 12.0931C12.4744 12.1236 12.4536 12.1604 12.442 12.2006C12.4305 12.2408 12.4285 12.2831 12.4363 12.3242C12.5819 13.0945 13.0722 14.1517 14.5775 14.8099C14.7558 14.8874 15.0313 14.948 15.3807 15.024C16.6886 15.3087 18.8757 15.7858 19.413 17.8035C19.422 17.8372 19.4375 17.8688 19.4586 17.8965C19.4798 17.9242 19.5062 17.9474 19.5362 17.9649C19.5663 17.9823 19.5995 17.9936 19.6339 17.9981C19.6683 18.0027 19.7032 18.0003 19.7368 17.9913C19.7703 17.9822 19.8017 17.9666 19.8292 17.9453C19.8567 17.924 19.8798 17.8975 19.8971 17.8672C19.9144 17.8369 19.9257 17.8035 19.9302 17.7689C19.9347 17.7343 19.9323 17.6991 19.9233 17.6653C19.3021 15.3348 16.8242 14.7945 15.4926 14.5044C15.1844 14.4369 14.9179 14.379 14.7875 14.3217C13.8829 13.9264 13.2987 13.3399 13.0453 12.576C15.5586 12.764 16.6965 11.7563 16.7466 11.7106C16.7775 11.6824 16.8014 11.6472 16.8162 11.608C16.831 11.5688 16.8364 11.5265 16.8318 11.4848C16.8273 11.4431 16.813 11.403 16.7901 11.3679C16.7672 11.3328 16.7364 11.3037 16.7002 11.2829C15.2498 10.4488 15.2498 7.56682 15.2498 6.48147C15.2498 3.44644 13.219 1.04041 10.6154 1.00269L10.541 1.0011C7.89949 1.01597 5.74985 3.42466 5.74985 6.37097C5.74985 7.45632 5.74985 10.3389 4.29952 11.1724C4.26213 11.1943 4.23061 11.225 4.2077 11.2619C4.1848 11.2988 4.17119 11.3408 4.16807 11.3842C4.16495 11.4276 4.17241 11.4711 4.1898 11.511C4.20719 11.5508 4.23398 11.5858 4.26785 11.6128C4.34068 11.6697 5.95041 12.9096 7.93116 12.5329C7.66621 13.265 7.08988 13.8281 6.21166 14.2122C6.08446 14.268 5.83113 14.3291 5.53768 14.3992C4.19713 14.7201 1.70127 15.3178 1.07638 17.6648C1.0674 17.6985 1.06511 17.7337 1.06965 17.7683C1.07418 17.803 1.08544 17.8364 1.10279 17.8666C1.13783 17.9277 1.19553 17.9722 1.26321 17.9905C1.33089 18.0087 1.403 17.9992 1.46367 17.9639C1.52434 17.9286 1.56861 17.8705 1.58674 17.8024C2.12982 15.7603 4.34016 15.2317 5.66013 14.9151C5.99104 14.8359 6.25229 14.7732 6.42224 14.6994C7.92746 14.0412 8.41724 12.984 8.56343 12.2137C8.57195 12.1685 8.5687 12.122 8.55399 12.0785C8.53928 12.035 8.51362 11.9961 8.47952 11.9656C8.44547 11.935 8.40414 11.9139 8.35956 11.9042C8.31497 11.8945 8.26866 11.8966 8.22513 11.9103C6.79643 12.3629 5.47646 11.7403 4.8996 11.395C6.27763 10.2337 6.27763 7.56097 6.27763 6.37097C6.27763 3.71632 8.19135 1.54563 10.5632 1.53129L10.6191 1.53447C12.9582 1.56794 14.7221 3.69454 14.7221 6.48147C14.7221 7.672 14.7221 10.3506 16.1059 11.5119C15.6293 11.786 14.5426 12.2296 12.7271 12.0107Z" fill="black" stroke="black" stroke-width="0.5"/>
</svg>
