<svg width="16" height="16" viewBox="0 0 16 16" fill="none" xmlns="http://www.w3.org/2000/svg">
    <path fill-rule="evenodd" clip-rule="evenodd" d="M7.04015 7.74479L8.19138 6.63789C8.16643 6.58874 8.1424 6.53951 8.11929 6.49021C8.09058 6.429 8.06328 6.36769 8.0374 6.30631C8.00456 6.22841 7.97399 6.1504 7.9457 6.07234C7.68134 5.34284 7.61604 4.6085 7.75143 3.91391C7.83828 3.46832 8.00772 3.03909 8.26019 2.63799C9.40982 0.813418 12.0691 -0.164251 15.3748 0.0226676C15.5314 0.0314592 15.6792 0.095225 15.7901 0.201859C15.901 0.308492 15.9673 0.450569 15.9764 0.601115C16.1708 3.7795 15.154 6.33636 13.2563 7.44095C13.1372 7.51062 13.0148 7.57398 12.8895 7.63091C12.3582 7.87228 11.7761 7.99782 11.1851 7.99632C10.5852 7.98969 9.99322 7.87421 9.43987 7.65709C9.41803 7.64852 9.39625 7.6398 9.37453 7.63091C9.28082 7.59257 9.18826 7.55129 9.09701 7.5071L7.30416 9.23091H13.4403C13.6101 9.23091 13.7729 9.29574 13.8929 9.41115C14.0129 9.52655 14.0804 9.68307 14.0804 9.84628C14.0804 10.0095 14.0129 10.166 13.8929 10.2814C13.7729 10.3968 13.6101 10.4617 13.4403 10.4617H12.6739L11.6171 15.0362C11.5551 15.3101 11.3972 15.5554 11.1698 15.7308C10.9423 15.9062 10.6591 16.0013 10.3675 16H4.99368C4.702 16.0016 4.41862 15.9066 4.19109 15.7311C3.96356 15.5557 3.80572 15.3103 3.74404 15.0362L2.68721 10.4617H1.91999C1.75024 10.4617 1.58745 10.3968 1.46742 10.2814C1.3474 10.166 1.27997 10.0095 1.27997 9.84628C1.27997 9.68307 1.3474 9.52655 1.46742 9.41115C1.5693 9.3132 1.70198 9.25168 1.84358 9.23531C1.86881 9.23239 1.89432 9.23091 1.91999 9.23091H5.4953L6.13532 8.61554L5.16169 7.67787C5.04522 7.72992 4.9262 7.77582 4.80515 7.81547C4.73548 7.83828 4.66514 7.85903 4.59424 7.87768C4.29703 7.95584 3.98981 7.99722 3.68004 8.00017C3.15797 8.00133 2.64502 7.87388 2.18978 7.63091C2.15279 7.61117 2.11619 7.59067 2.07999 7.56941C0.639947 6.73251 -0.128077 4.81563 0.0175279 2.44107C0.0268414 2.29079 0.0931315 2.149 0.203852 2.04254C0.314573 1.93608 0.462041 1.87235 0.618347 1.86339C3.08882 1.72417 5.08249 2.46184 5.95211 3.84565C6.009 3.93587 6.06043 4.02791 6.10642 4.12155C6.41651 4.75288 6.4791 5.45672 6.2968 6.16346C6.28787 6.19809 6.27834 6.23274 6.26823 6.26738C6.24933 6.33216 6.22837 6.39693 6.20535 6.46164C6.17878 6.53636 6.14947 6.61099 6.11743 6.68547C6.10763 6.70825 6.09758 6.73101 6.08727 6.75375C6.07943 6.77104 6.07145 6.78832 6.06332 6.80558L7.04015 7.74479ZM4.5887 6.18143L4.61582 6.12386C4.88956 5.54262 4.83247 5.06977 4.59871 4.69905L4.59741 4.69699C4.24112 4.13004 3.27318 3.53748 1.61295 3.45576C1.70833 4.95959 2.2941 5.84326 2.88395 6.18606L2.89025 6.18972C3.12104 6.32526 3.3913 6.39979 3.67083 6.40018C3.96256 6.39657 4.24838 6.33351 4.5089 6.21709L4.5887 6.18143ZM4.41466 10.8309H10.9465L10.1219 14.4H5.23921L4.41466 10.8309ZM11.1958 6.39634C10.7062 6.3899 10.2267 6.27643 9.79431 6.06705L9.66388 6.00389L9.61814 5.91377C9.14049 4.97263 9.2039 4.14277 9.61388 3.49093M11.1958 6.39634C11.6417 6.3963 12.0752 6.27821 12.4485 6.05989L12.4514 6.05815C13.4797 5.45964 14.3466 3.96022 14.3981 1.60074C11.8508 1.63767 10.238 2.50046 9.61388 3.49093" fill="#BFB692"/>
</svg>
