<svg width="14" height="11" viewBox="0 0 14 11" fill="none" xmlns="http://www.w3.org/2000/svg">
    <path d="M0.388815 5.13388C0.285695 5.13388 0.186797 5.17254 0.11388 5.24136C0.0409634 5.31018 -7.08895e-07 5.40352 -7.13149e-07 5.50085C-7.17404e-07 5.59817 0.0409634 5.69151 0.11388 5.76033C0.186797 5.82915 0.285695 5.86782 0.388815 5.86782L12.6754 5.86782L7.89296 10.3815C7.82213 10.4507 7.78294 10.5434 7.78383 10.6396C7.78471 10.7359 7.8256 10.8279 7.89769 10.8959C7.96978 10.964 8.0673 11.0026 8.16925 11.0034C8.27119 11.0042 8.36941 10.9673 8.44274 10.9004L13.8862 5.76286C13.9591 5.69405 14 5.60073 14 5.50342C14 5.40611 13.9591 5.31279 13.8862 5.24397L8.44274 0.106431C8.36941 0.0395849 8.27119 0.0025966 8.16925 0.00343297C8.0673 0.00426839 7.96978 0.0428617 7.89769 0.110901C7.8256 0.17894 7.78471 0.27098 7.78383 0.367197C7.78294 0.463415 7.82213 0.556112 7.89296 0.625323L12.6754 5.13902L0.388815 5.13902L0.388815 5.13388Z" fill="#00473C"/>
</svg>
