<svg width="21" height="21" viewBox="0 0 21 21" fill="none" xmlns="http://www.w3.org/2000/svg">
    <path d="M12.6333 21C12.7962 21 12.9549 20.9496 13.0866 20.8561C13.2183 20.7625 13.3161 20.6307 13.3659 20.4795L14.2125 17.916C14.568 17.7465 14.9082 17.556 15.2329 17.3415L17.9357 17.9085C18.0951 17.9417 18.2611 17.9247 18.4099 17.86C18.5587 17.7953 18.6826 17.6862 18.7638 17.5485L20.8971 13.95C20.9785 13.8124 21.013 13.6531 20.9956 13.4951C20.9782 13.3371 20.9097 13.1886 20.8001 13.071L18.9454 11.076C18.9724 10.6935 18.9724 10.3095 18.9454 9.927L20.8001 7.929C20.9097 7.81139 20.9782 7.66288 20.9956 7.5049C21.013 7.34692 20.9785 7.18763 20.8971 7.05L18.7638 3.45C18.6824 3.31256 18.5584 3.20381 18.4096 3.13939C18.2608 3.07497 18.0949 3.05821 17.9357 3.0915L15.2329 3.6585C14.9097 3.4455 14.568 3.2535 14.214 3.084L13.3659 0.5205C13.3161 0.369329 13.2183 0.237482 13.0866 0.143944C12.9549 0.0504055 12.7962 5.72205e-06 12.6333 0H8.36672C8.20379 5.72205e-06 8.04506 0.0504055 7.9134 0.143944C7.78174 0.237482 7.68393 0.369329 7.63408 0.5205L6.78908 3.0825C6.43448 3.25148 6.09246 3.44445 5.76553 3.66L3.0643 3.0915C2.90494 3.05834 2.7389 3.07533 2.59009 3.14003C2.44127 3.20473 2.31737 3.31379 2.23623 3.4515L0.102948 7.05C0.021487 7.18763 -0.0130174 7.34692 0.00441008 7.5049C0.0218376 7.66288 0.0902963 7.81139 0.199915 7.929L2.05461 9.927C2.02774 10.3086 2.02774 10.6914 2.05461 11.073L0.199915 13.071C0.0902963 13.1886 0.0218376 13.3371 0.00441008 13.4951C-0.0130174 13.6531 0.021487 13.8124 0.102948 13.95L2.23623 17.55C2.3176 17.6874 2.44159 17.7962 2.59039 17.8606C2.73918 17.925 2.90511 17.9418 3.0643 17.9085L5.76553 17.34C6.09183 17.5545 6.43353 17.748 6.78908 17.9175L7.63562 20.4795C7.68531 20.6302 7.78265 20.7617 7.91369 20.8552C8.04474 20.9487 8.20277 20.9994 8.36518 21H12.6317H12.6333ZM12.0699 19.5H8.93005L8.05581 16.8495L7.46631 16.569C7.17651 16.4308 6.89676 16.2734 6.629 16.098L6.08414 15.738L3.28902 16.326L1.71907 13.674L3.63533 11.607L3.58915 10.971C3.56704 10.6574 3.56704 10.3426 3.58915 10.029L3.63533 9.393L1.71599 7.326L3.28748 4.674L6.0826 5.2605L6.62746 4.902C6.89522 4.72657 7.17497 4.56921 7.46477 4.431L8.05427 4.1505L8.93005 1.5H12.073L12.9503 4.152L13.5383 4.431C13.8278 4.56888 14.1071 4.72626 14.3741 4.902L14.9174 5.2605L17.7141 4.674L19.284 7.326L17.3662 9.393L17.4124 10.029C17.4346 10.3431 17.4346 10.6584 17.4124 10.9725L17.3662 11.6085L19.2855 13.674L17.7141 16.326L14.9174 15.741L14.3741 16.098C14.1071 16.2738 13.8278 16.4312 13.5383 16.569L12.9503 16.848L12.0715 19.5H12.0699ZM10.5 15C11.7246 15 12.8991 14.5259 13.7651 13.682C14.631 12.8381 15.1175 11.6935 15.1175 10.5C15.1175 9.30653 14.631 8.16193 13.7651 7.31802C12.8991 6.4741 11.7246 6 10.5 6C9.27537 6 8.10089 6.4741 7.23494 7.31802C6.36899 8.16193 5.88251 9.30653 5.88251 10.5C5.88251 11.6935 6.36899 12.8381 7.23494 13.682C8.10089 14.5259 9.27537 15 10.5 15ZM10.5 13.5C9.68358 13.5 8.90059 13.1839 8.32329 12.6213C7.746 12.0587 7.42167 11.2956 7.42167 10.5C7.42167 9.70435 7.746 8.94129 8.32329 8.37868C8.90059 7.81607 9.68358 7.5 10.5 7.5C11.3164 7.5 12.0994 7.81607 12.6767 8.37868C13.254 8.94129 13.5783 9.70435 13.5783 10.5C13.5783 11.2956 13.254 12.0587 12.6767 12.6213C12.0994 13.1839 11.3164 13.5 10.5 13.5Z" fill="#0DA180"/>
</svg>
