<svg width="23" height="27" viewBox="0 0 23 27" fill="none" xmlns="http://www.w3.org/2000/svg">
    <g clip-path="url(#clip0_251_1056)">
        <path d="M19.5498 16.5499C20.2582 16.5499 20.934 16.8257 21.4297 17.3106C21.9248 17.795 22.2002 18.4479 22.2002 19.1251V19.9288C22.2002 21.5819 21.2126 23.1261 19.3262 24.294C17.4381 25.463 14.7174 26.2003 11.5 26.2003C8.27462 26.2003 5.55398 25.4985 3.66895 24.3497C1.79388 23.2068 0.799805 21.6669 0.799805 19.9288V19.1251C0.799726 18.4991 1.03433 17.8914 1.46387 17.419C1.80565 17.0432 2.25285 16.7749 2.74805 16.6427C4.10889 18.1385 5.84512 19.2584 7.78418 19.8946C8.44892 20.684 9.35573 21.2413 10.3701 21.4815C11.4707 21.7422 12.6302 21.6147 13.6455 21.1202C14.6612 20.6255 15.4698 19.7937 15.9248 18.7677C16.2363 18.0653 16.3685 17.3043 16.3154 16.5499H19.5498ZM11.6348 0.800853C13.0079 0.822335 14.3542 1.17279 15.5557 1.81941C16.757 2.46597 17.7772 3.38899 18.5273 4.50691C19.2704 5.61428 19.7255 6.88015 19.8584 8.19538C19.8528 8.19687 19.8463 8.19926 19.8379 8.19929C19.8194 8.19929 19.7977 8.19381 19.7734 8.17097C19.7465 8.14553 19.725 8.10633 19.7197 8.06257C19.5507 6.64057 19.0008 5.28839 18.1279 4.14362C17.2552 2.99924 16.0902 2.10252 14.7529 1.54206C13.4157 0.981682 11.9518 0.776574 10.5088 0.947338C9.06568 1.11813 7.69304 1.65922 6.5293 2.51667C5.36552 3.37414 4.45132 4.51806 3.88184 5.83503C3.31238 7.15214 3.10773 8.59444 3.29004 10.0147C3.47246 11.4351 4.03536 12.7823 4.91895 13.919C5.80136 15.0543 6.97293 15.9388 8.31348 16.4874L8.35938 16.5079L8.36816 16.5118C8.62399 16.6144 8.8857 16.703 9.14941 16.7804L9.83398 16.9815L10.1113 16.3243C10.2415 16.0167 10.4787 15.7586 10.7861 15.5978C11.094 15.4368 11.4513 15.3852 11.7959 15.4522C12.1404 15.5193 12.4468 15.7007 12.665 15.961C12.8828 16.2209 13.0002 16.5434 13 16.8741V16.8761C13.0002 17.2044 12.8848 17.5253 12.6699 17.7843C12.4546 18.0437 12.1518 18.2261 11.8105 18.296C11.4691 18.3659 11.1138 18.3178 10.8057 18.1622C10.5363 18.0262 10.3185 17.8162 10.1777 17.5626L10.123 17.4513L10.1182 17.4405L9.95703 17.0724L9.56543 16.9815L9.1875 16.8849L9.17676 16.8819C7.97714 16.5451 6.87071 15.9511 5.9375 15.1446L5.93652 15.1437C4.90985 14.2575 4.12182 13.1402 3.63965 11.8907C3.15761 10.6414 2.99569 9.29652 3.16699 7.97273C3.33836 6.64878 3.83768 5.3841 4.62402 4.29011C5.41053 3.196 6.46056 2.30512 7.68262 1.69636C8.90479 1.08758 10.2617 0.7794 11.6348 0.800853ZM10.8652 4.21687C11.558 4.12911 12.2621 4.18565 12.9307 4.38191C13.5157 4.55364 14.0619 4.82854 14.542 5.19245L14.7432 5.35359C15.7933 6.24167 16.4501 7.54669 16.4502 8.99909C16.4503 9.86947 16.2088 10.7258 15.75 11.4747C15.3774 12.0828 14.871 12.6006 14.2705 12.9962C13.4617 12.4387 12.495 12.1357 11.5 12.1368C10.5047 12.1356 9.53715 12.438 8.72852 12.9962C8.29373 12.7092 7.90752 12.3571 7.58594 11.9513C7.16089 11.4148 6.8571 10.7977 6.69336 10.1407C6.52967 9.48381 6.50935 8.80069 6.63379 8.13581C6.75829 7.47091 7.02477 6.8376 7.41699 6.27839C7.80932 5.71912 8.31901 5.24534 8.91309 4.88972C9.5072 4.53412 10.1727 4.30466 10.8652 4.21687Z" stroke="#0DA180" stroke-width="1.6"/>
    </g>
    <defs>
        <clipPath id="clip0_251_1056">
            <rect width="23" height="27" fill="white"/>
        </clipPath>
    </defs>
</svg>
