<svg width="74" height="86" viewBox="0 0 74 86" fill="none" xmlns="http://www.w3.org/2000/svg">
    <g filter="url(#filter0_d_2888_3383)">
        <path fill-rule="evenodd" clip-rule="evenodd" d="M44.7736 63.4959C58.6901 60.0534 69 47.5797 69 32.7192C69 15.2012 54.6731 1 37 1C19.3269 1 5 15.2012 5 32.7192C5 47.5797 15.3099 60.0534 29.2264 63.4959L37 76.842L44.7736 63.4959Z" fill="white"/>
        <path d="M44.7736 63.4959L44.6535 63.0105L44.4481 63.0614L44.3415 63.2443L44.7736 63.4959ZM29.2264 63.4959L29.6584 63.2443L29.5519 63.0614L29.3465 63.0105L29.2264 63.4959ZM37 76.842L36.5679 77.0937L37 77.8355L37.4321 77.0937L37 76.842ZM68.5 32.7192C68.5 47.3417 58.3549 59.6213 44.6535 63.0105L44.8937 63.9813C59.0254 60.4856 69.5 47.8178 69.5 32.7192H68.5ZM37 1.5C54.4011 1.5 68.5 15.4814 68.5 32.7192H69.5C69.5 14.9209 54.9451 0.5 37 0.5V1.5ZM5.5 32.7192C5.5 15.4814 19.5989 1.5 37 1.5V0.5C19.0549 0.5 4.5 14.9209 4.5 32.7192H5.5ZM29.3465 63.0105C15.6451 59.6213 5.5 47.3417 5.5 32.7192H4.5C4.5 47.8178 14.9746 60.4856 29.1063 63.9813L29.3465 63.0105ZM28.7943 63.7476L36.5679 77.0937L37.4321 76.5904L29.6584 63.2443L28.7943 63.7476ZM37.4321 77.0937L45.2057 63.7476L44.3415 63.2443L36.5679 76.5904L37.4321 77.0937Z" fill="black"/>
        <path d="M33.5577 37.4359C32.9842 37.288 32.4958 37.1445 32.0769 37.0071C32.004 37.0739 31.9293 37.1391 31.853 37.2026L31.5331 36.8184L31.7057 36.3491C31.7835 36.3777 31.8645 36.4067 31.9489 36.4361C32.3832 35.9947 32.7347 35.4887 32.9747 34.9331C32.9307 34.8998 32.8871 34.8661 32.8439 34.8319L33.5577 37.4359ZM33.5577 37.4359C35.3629 37.9015 35.5209 36.8263 35.2195 35.6196L33.5577 37.4359ZM52.4742 26.9092L52.3238 27.2009L52.5317 27.4549C53.1437 28.2026 53.5008 29.1086 53.5 30.0827V30.0831C53.5 32.049 52.0497 33.769 49.9525 34.3783L49.597 34.4816L49.592 34.8517C49.5592 37.272 47.3133 39.3242 44.4183 39.3242C43.2869 39.3242 42.2511 38.9993 41.4015 38.4632L41.0586 38.2468L40.776 38.5376C40.1483 39.1837 39.4913 39.7532 38.8757 40.1157L38.8753 40.116C38.0091 40.6272 37.6762 41.5475 37.6018 42.4911C37.5272 43.4367 37.7004 44.5055 37.9476 45.485C38.1965 46.4713 38.5296 47.4023 38.7988 48.0839C38.8586 48.2352 38.9154 48.3746 38.9676 48.5H33.8052C34.0517 48.0591 34.3418 47.4447 34.5805 46.6693C35.1027 44.973 35.3741 42.521 34.4253 39.4565C34.2835 38.9978 34.0471 38.6629 33.7414 38.4117C33.4475 38.1701 33.1088 38.0227 32.7964 37.9047C32.6822 37.8616 32.5703 37.8216 32.4605 37.7822C32.0688 37.642 31.7037 37.5113 31.3557 37.2859L31.3605 37.2876C31.903 37.4872 32.5776 37.6995 33.4328 37.9201L33.4328 37.9201C34.3893 38.1667 35.1907 38.0742 35.6017 37.4212C35.7838 37.1319 35.8401 36.7944 35.8408 36.4792C35.8416 36.1603 35.7857 35.8233 35.7046 35.4985L35.6426 35.25L35.4046 35.1552C34.6893 34.8701 34.0342 34.4981 33.464 34.0474L32.8848 33.5895L32.6746 34.2974C32.4313 35.117 31.9153 35.8496 31.2132 36.4341L30.7663 36.8062L30.7499 36.7916L30.4397 36.9655C29.6346 37.417 28.6898 37.6904 27.6661 37.6904C24.7473 37.6904 22.4877 35.6071 22.4877 33.1624C22.4877 32.9974 22.4989 32.8351 22.5196 32.6716L22.5563 32.3823L22.3224 32.2079C21.195 31.3673 20.5 30.1284 20.5 28.7633C20.5 27.1183 21.5134 25.6518 23.0763 24.8536L23.3617 24.7079L23.3484 24.3876C23.347 24.3539 23.3442 24.3192 23.3424 24.2965C23.3421 24.2923 23.3418 24.2884 23.3415 24.2851C23.3395 24.259 23.339 24.2468 23.339 24.2384C23.339 21.7935 25.5994 19.7104 28.5183 19.7104C28.7363 19.7104 28.9533 19.7266 29.1773 19.7509L29.6431 19.8016L29.7238 19.34C30.0967 17.2075 32.2004 15.5 34.8352 15.5C36.5192 15.5 37.9981 16.2047 38.9388 17.2746L39.2029 17.575L39.5539 17.3833C40.3481 16.9496 41.2826 16.6937 42.2891 16.6937C44.7667 16.6937 46.7809 18.2071 47.3179 20.1621L47.4181 20.527L47.7966 20.5296C50.6959 20.5498 52.9336 22.6224 52.9336 25.0555C52.9336 25.7134 52.7679 26.3393 52.4742 26.9092ZM36.4773 35.5001L35.7546 35.3232L35.8638 36.0592C35.9302 36.5064 35.9631 37.0195 35.9335 37.6318C35.9171 37.968 35.9184 38.2467 35.9391 38.4694C35.958 38.6727 35.9982 38.9007 36.1105 39.0792C36.1729 39.1784 36.2771 39.2929 36.4399 39.3525C36.6073 39.4138 36.7656 39.3913 36.8834 39.347C37.0858 39.2709 37.2361 39.1068 37.3309 38.99C37.5423 38.7294 37.767 38.3274 37.9822 37.893C38.2024 37.4485 38.4302 36.9335 38.6441 36.4228L38.9245 35.7535L38.1992 35.7299C37.6016 35.7105 37.0245 35.6341 36.4773 35.5001ZM37.4276 39.0306L38.0111 39.8281L37.7812 39.3841L38.0112 39.8281L38.0112 39.8281L38.0115 39.828L38.0122 39.8276L38.0148 39.8262L38.0247 39.8211L38.0625 39.8013C38.0956 39.784 38.1439 39.7586 38.2058 39.7258C38.3295 39.6603 38.5072 39.5652 38.7245 39.4468C39.1588 39.21 39.7523 38.8789 40.3884 38.502L40.9349 38.1781L40.4916 37.723C40.183 37.4061 39.922 37.0677 39.7276 36.7033L39.161 35.641L38.8084 36.7922C38.5895 37.5069 38.1779 38.2801 37.4276 39.0306Z" fill="#38A484" stroke="black"/>
    </g>
    <defs>
        <filter id="filter0_d_2888_3383" x="0.5" y="0.5" width="73" height="85.3359" filterUnits="userSpaceOnUse" color-interpolation-filters="sRGB">
            <feFlood flood-opacity="0" result="BackgroundImageFix"/>
            <feColorMatrix in="SourceAlpha" type="matrix" values="0 0 0 0 0 0 0 0 0 0 0 0 0 0 0 0 0 0 127 0" result="hardAlpha"/>
            <feOffset dy="4"/>
            <feGaussianBlur stdDeviation="2"/>
            <feComposite in2="hardAlpha" operator="out"/>
            <feColorMatrix type="matrix" values="0 0 0 0 0 0 0 0 0 0 0 0 0 0 0 0 0 0 0.1 0"/>
            <feBlend mode="normal" in2="BackgroundImageFix" result="effect1_dropShadow_2888_3383"/>
            <feBlend mode="normal" in="SourceGraphic" in2="effect1_dropShadow_2888_3383" result="shape"/>
        </filter>
    </defs>
</svg>