<svg width="81" height="49" viewBox="0 0 81 49" fill="none" xmlns="http://www.w3.org/2000/svg">
    <path d="M40.4492 0.000400543C36.1992 0.000400543 32.3672 2.5629 30.7383 6.4887C29.1133 10.4184 30.0118 14.9379 33.0156 17.9417C36.0234 20.9495 40.5429 21.8479 44.4726 20.2229C48.3984 18.594 50.9609 14.762 50.9609 10.512C50.9531 4.7073 46.2503 0.00840054 40.4492 0.000400543ZM40.4492 17.8954C37.4609 17.8954 34.7695 16.0985 33.625 13.3368C32.4844 10.579 33.1133 7.4032 35.2266 5.2899C37.3399 3.1766 40.5157 2.5438 43.2774 3.6883C46.0352 4.8328 47.836 7.5242 47.836 10.5125C47.8321 14.5867 44.5273 17.8915 40.4492 17.8954Z" stroke="#BFB692" stroke-width="1.5"/>
    <path d="M64.6643 27.7578H56.8596C55.4963 27.7656 54.1448 27.9453 52.8284 28.293C50.4065 27.2344 47.7932 26.6836 45.1487 26.6836H35.7503C33.1058 26.6836 30.4925 27.2344 28.0706 28.2969C26.7542 27.9492 25.4026 27.7656 24.0394 27.7578H16.2347C11.93 27.7617 7.805 29.4726 4.7617 32.5156C1.7148 35.5586 0.0039 39.6875 0 43.9886C0 45.1019 0.90234 46.0042 2.0117 46.0042H16.5347C16.5777 47.1292 17.4995 48.0159 18.6206 48.0198H62.2766C63.3977 48.0159 64.3196 47.1292 64.3625 46.0042H78.8855C79.9949 46.0042 80.8972 45.1019 80.8972 43.9886C80.8933 39.6878 79.1824 35.5589 76.1355 32.5156C73.0925 29.4726 68.9675 27.7617 64.6625 27.7578H64.6643ZM16.7813 42.8788H3.1723C3.75824 36.0976 9.4262 30.8908 16.2343 30.8828H23.7929C20.039 33.8672 17.5391 38.1445 16.7813 42.8788ZM19.6758 44.8944C19.9375 40.8124 21.7461 36.9803 24.7305 34.1794C27.7188 31.3747 31.6563 29.8161 35.7505 29.8083H45.1489C49.2427 29.8161 53.1801 31.3747 56.1689 34.1794C59.1533 36.9802 60.9619 40.8122 61.2236 44.8944H19.6758ZM64.1168 42.8788C63.359 38.1444 60.859 33.8671 57.1051 30.8828H64.6637C71.4723 30.8906 77.1407 36.0976 77.7257 42.8788H64.1168Z" stroke="#BFB692" stroke-width="1.5"/>
    <path d="M51.7693 14.5899C51.7693 18.2266 53.9607 21.504 57.3201 22.8985C60.6795 24.2891 64.5467 23.5196 67.1209 20.9493C69.6912 18.3751 70.4607 14.5079 69.0701 11.1485C67.6756 7.78906 64.3982 5.59766 60.7615 5.59766C55.7967 5.60547 51.7771 9.62496 51.7693 14.5899ZM60.7615 8.72266C63.1365 8.72266 65.2732 10.1524 66.1834 12.3438C67.0935 14.5352 66.5896 17.0626 64.91 18.7383C63.2342 20.418 60.7108 20.918 58.5155 20.0117C56.3241 19.1015 54.8944 16.9648 54.8944 14.5898C54.8983 11.3515 57.5232 8.72656 60.7615 8.72266Z" stroke="#BFB692" stroke-width="1.5"/>
    <path d="M20.1372 23.5824C23.7739 23.5824 27.0552 21.3949 28.4458 18.0316C29.8364 14.6722 29.0708 10.805 26.4966 8.23076C23.9263 5.66046 20.0591 4.89096 16.6958 6.28156C13.3364 7.67216 11.145 10.9535 11.145 14.5902C11.1489 19.555 15.1723 23.5785 20.1372 23.5824ZM20.1372 8.72336C22.5122 8.72336 24.6489 10.1531 25.5591 12.3445C26.4693 14.5359 25.9654 17.0633 24.2857 18.739C22.6099 20.4187 20.0865 20.9187 17.8912 20.0124C15.6998 19.1022 14.2701 16.9655 14.2701 14.5905C14.274 11.3522 16.8989 8.72726 20.1372 8.72336Z" stroke="#BFB692" stroke-width="1.5"/>
</svg>
