<svg width="78" height="43" viewBox="0 0 78 43" fill="none" xmlns="http://www.w3.org/2000/svg">
    <path d="M61.2661 41.5707C61.2622 41.8715 61.02 42.1137 60.7192 42.1176H17.0632C16.7625 42.1137 16.5203 41.8715 16.5164 41.5707C16.5164 41.0707 16.532 40.5707 16.5789 40.0863C16.9304 35.9222 18.7469 32.0199 21.7039 29.0703C23.1414 27.625 24.825 26.4453 26.6727 25.5859C29.0204 24.4726 31.5907 23.8984 34.1883 23.8984H43.5945C48.0242 23.9063 52.2859 25.5703 55.5475 28.5703C58.8053 31.5664 60.8248 35.6758 61.2037 40.0863C61.2505 40.5707 61.2661 41.0707 61.2661 41.5707Z" fill="#00473C"/>
    <path d="M47.8401 8.9453C47.8401 13.8867 43.8323 17.8945 38.8909 17.8945C33.9495 17.8945 29.9417 13.8867 29.9417 8.9453C29.9417 4.0039 33.9495 0 38.8909 0C43.8323 0 47.8401 4.0039 47.8401 8.9453Z" fill="#00473C"/>
    <path d="M77.782 39.649C77.782 39.7662 77.7312 39.8795 77.6492 39.9654C77.5633 40.0475 77.4461 40.0905 77.3289 40.0865H64.3289C63.9109 34.0982 60.9109 28.5825 56.1101 24.9775H63.1101C67.0007 24.9775 70.7312 26.5244 73.4851 29.2744C76.2351 32.0283 77.782 35.7584 77.782 39.649Z" fill="#00473C"/>
    <path d="M66.6331 13.0234C66.6331 17.1289 63.305 20.457 59.2034 20.457C55.1018 20.457 51.7737 17.1289 51.7737 13.0234C51.7737 8.92185 55.1018 5.59375 59.2034 5.59375C63.305 5.59375 66.6331 8.92185 66.6331 13.0234Z" fill="#00473C"/>
    <path d="M13.4531 40.086H0.45312C0.33593 40.0899 0.21874 40.0469 0.13281 39.9649C0.0507776 39.8789 0 39.7657 0 39.6485C0 35.7579 1.5469 32.0274 4.2969 29.2735C7.0469 26.5235 10.7813 24.9766 14.6719 24.9766H21.6719C16.8711 28.5821 13.8711 34.0981 13.4531 40.086Z" fill="#00473C"/>
    <path d="M26.0081 13.0234C26.0081 17.1289 22.68 20.457 18.5784 20.457C14.4768 20.457 11.1487 17.1289 11.1487 13.0234C11.1487 8.92185 14.4768 5.59375 18.5784 5.59375C22.68 5.59375 26.0081 8.92185 26.0081 13.0234Z" fill="#00473C"/>
</svg>
