<svg width="69" height="70" viewBox="0 0 69 70" fill="none" xmlns="http://www.w3.org/2000/svg">
    <path d="M17.879 64.7305C22.9571 67.5313 28.68 69 34.5 69C53.52 69 69 53.52 69 34.5C69 15.48 53.52 0 34.5 0C15.48 0 0 15.48 0 34.5C0 40.6094 1.6094 46.59 4.6797 51.852L0.2891 69.903L17.879 64.7305ZM19.711 18.3785C20.4415 17.7066 21.3907 17.3473 22.3829 17.3473H23.4337C24.8243 17.3473 26.0626 18.2184 26.5353 19.5192L28.6837 25.4411C28.8829 25.9997 28.7853 26.6208 28.4142 27.0895L26.715 29.2106C26.0431 30.0387 25.8634 31.1715 26.254 32.1598C28.3126 37.3395 34.4337 40.9801 37.633 42.5818C38.7932 43.1599 40.1838 42.9412 41.1018 42.031L42.9807 40.1521C43.4299 39.7029 44.1018 39.5427 44.7112 39.7302L50.4104 41.5505C51.7815 41.992 52.7112 43.2614 52.7112 44.6989V46.1481C52.7112 47.2067 52.2893 48.2262 51.5393 48.9762C45.9885 54.4567 36.7773 50.4371 30.8093 46.777C26.5085 44.1364 22.7585 40.6676 19.9693 36.457C13.2193 26.269 17.3204 20.5585 19.711 18.3785Z" fill="#00473C"/>
</svg>
